<svg xmlns="http://www.w3.org/2000/svg" xmlns:xlink="http://www.w3.org/1999/xlink" width="1394.737" height="923.347" viewBox="0 0 1394.737 923.347">
  <defs>
    <filter id="Path_247" x="140.054" y="626.821" width="348.027" height="247.554" filterUnits="userSpaceOnUse">
      <feOffset dy="13" input="SourceAlpha"/>
      <feGaussianBlur stdDeviation="17.5" result="blur"/>
      <feFlood flood-opacity="0.161"/>
      <feComposite operator="in" in2="blur"/>
      <feComposite in="SourceGraphic"/>
    </filter>
    <filter id="Path_251" x="98.17" y="529.432" width="533.545" height="393.914" filterUnits="userSpaceOnUse">
      <feOffset dy="13" input="SourceAlpha"/>
      <feGaussianBlur stdDeviation="17.5" result="blur-2"/>
      <feFlood flood-opacity="0.161"/>
      <feComposite operator="in" in2="blur-2"/>
      <feComposite in="SourceGraphic"/>
    </filter>
    <filter id="Path_253" x="43.878" y="525.846" width="509.508" height="395.38" filterUnits="userSpaceOnUse">
      <feOffset dy="13" input="SourceAlpha"/>
      <feGaussianBlur stdDeviation="17.5" result="blur-3"/>
      <feFlood flood-opacity="0.161"/>
      <feComposite operator="in" in2="blur-3"/>
      <feComposite in="SourceGraphic"/>
    </filter>
    <filter id="Path_252" x="895.431" y="62.416" width="499.305" height="430.71" filterUnits="userSpaceOnUse">
      <feOffset dy="13" input="SourceAlpha"/>
      <feGaussianBlur stdDeviation="17.5" result="blur-4"/>
      <feFlood flood-opacity="0.161"/>
      <feComposite operator="in" in2="blur-4"/>
      <feComposite in="SourceGraphic"/>
    </filter>
    <filter id="Path_243" x="991.301" y="35.515" width="354.463" height="279.457" filterUnits="userSpaceOnUse">
      <feOffset dy="13" input="SourceAlpha"/>
      <feGaussianBlur stdDeviation="17.5" result="blur-5"/>
      <feFlood flood-opacity="0.161"/>
      <feComposite operator="in" in2="blur-5"/>
      <feComposite in="SourceGraphic"/>
    </filter>
    <filter id="Path_244" x="1064.95" y="0" width="280.842" height="227.971" filterUnits="userSpaceOnUse">
      <feOffset dy="13" input="SourceAlpha"/>
      <feGaussianBlur stdDeviation="17.5" result="blur-6"/>
      <feFlood flood-opacity="0.161"/>
      <feComposite operator="in" in2="blur-6"/>
      <feComposite in="SourceGraphic"/>
    </filter>
    <filter id="Path_248" x="96.431" y="600.812" width="267.363" height="183.616" filterUnits="userSpaceOnUse">
      <feOffset dy="13" input="SourceAlpha"/>
      <feGaussianBlur stdDeviation="17.5" result="blur-7"/>
      <feFlood flood-opacity="0.161"/>
      <feComposite operator="in" in2="blur-7"/>
      <feComposite in="SourceGraphic"/>
    </filter>
    <filter id="Path_240" x="0" y="229.329" width="1302.375" height="438.586" filterUnits="userSpaceOnUse">
      <feOffset dy="13" input="SourceAlpha"/>
      <feGaussianBlur stdDeviation="11" result="blur-8"/>
      <feFlood flood-opacity="0.161"/>
      <feComposite operator="in" in2="blur-8"/>
      <feComposite in="SourceGraphic"/>
    </filter>
    <filter id="Path_134" x="68.946" y="227.914" width="1163.761" height="416.525" filterUnits="userSpaceOnUse">
      <feOffset dy="12" input="SourceAlpha"/>
      <feGaussianBlur stdDeviation="21.5" result="blur-9"/>
      <feFlood flood-opacity="0.161"/>
      <feComposite operator="in" in2="blur-9"/>
      <feComposite in="SourceGraphic"/>
    </filter>
    <linearGradient id="linear-gradient" x1="0.5" y1="1" x2="0.5" gradientUnits="objectBoundingBox">
      <stop offset="0" stop-color="gray" stop-opacity="0.251"/>
      <stop offset="0.54" stop-color="gray" stop-opacity="0.122"/>
      <stop offset="1" stop-color="gray" stop-opacity="0.102"/>
    </linearGradient>
    <linearGradient id="linear-gradient-2" x1="0.5" y1="1" x2="0.5" y2="0" xlink:href="#linear-gradient"/>
  </defs>
  <g id="Group_35" data-name="Group 35" transform="translate(-575.936 -188.78)">
    <g transform="matrix(1, 0, 0, 1, 575.94, 188.78)" filter="url(#Path_247)">
      <path id="Path_247-2" data-name="Path 247" d="M47.274,15.141C4.845,38.8,13.352,85.8,46.143,108.985s84.675,22.189,152.793,13.7,74.561-88.8,16.925-108.336C152.8-7.029,89.7-8.519,47.274,15.141Z" transform="translate(453.88 793.39) rotate(177)" fill="#8bd338"/>
    </g>
    <g transform="matrix(1, 0, 0, 1, 575.94, 188.78)" filter="url(#Path_251)">
      <path id="Path_251-2" data-name="Path 251" d="M72.429,17.542C-7.646,41.305-19.186,109.479,27.255,139.319S199.921,187.5,281.748,157.905,436.194,46.094,354.565,20.948C265.255-6.563,152.5-6.221,72.429,17.542Z" transform="translate(523.83 855.94) rotate(-162)" fill="none" stroke="#87ce37" stroke-width="3"/>
    </g>
    <g transform="matrix(1, 0, 0, 1, 575.94, 188.78)" filter="url(#Path_253)">
      <path id="Path_253-2" data-name="Path 253" d="M46.588-21.134C-24.812.055-1.353,96.531,40.056,123.138s138.205,44.046,211.167,17.66,167.03-95.352,74.9-133.614S117.988-42.322,46.588-21.134Z" transform="translate(453.4 825.05) rotate(-162)" fill="none" stroke="#87ce37" stroke-width="1"/>
    </g>
    <g transform="matrix(1, 0, 0, 1, 575.94, 188.78)" filter="url(#Path_252)">
      <path id="Path_252-2" data-name="Path 252" d="M61.858,24.415C-6.53,57.489-16.386,152.373,23.277,193.9s134.957,41.083,217.35,25.869,131.9-155.62,62.189-190.618C226.541-9.135,130.246-8.658,61.858,24.415Z" transform="translate(1269.45 425.72) rotate(-162)" fill="none" stroke="#87ce37" stroke-width="3"/>
    </g>
    <g transform="matrix(1, 0, 0, 1, 575.94, 188.78)" filter="url(#Path_243)">
      <path id="Path_243-2" data-name="Path 243" d="M43.265,122.175C-4.567,100.429-11.46,38.042,16.28,10.734S110.672-16.278,168.3-6.275s92.256,102.321,43.5,125.332C158.447,144.234,91.1,143.921,43.265,122.175Z" transform="matrix(0.99, -0.1, 0.1, 0.99, 1045.11, 112)" fill="#a5f14e"/>
    </g>
    <g transform="matrix(1, 0, 0, 1, 575.94, 188.78)" filter="url(#Path_244)">
      <path id="Path_244-2" data-name="Path 244" d="M30.5,82.432C-3.219,67.1-8.078,23.129,11.476,3.88S78.01-15.16,118.631-8.109s65.03,72.124,30.66,88.344C111.686,97.982,64.212,97.761,30.5,82.432Z" transform="matrix(0.99, -0.1, 0.1, 0.99, 1118.76, 69.24)" fill="#a5f14e"/>
    </g>
    <g transform="matrix(1, 0, 0, 1, 575.94, 188.78)" filter="url(#Path_248)">
      <path id="Path_248-2" data-name="Path 248" d="M30.5,46.44C-3.219,36.924-8.078,9.623,11.476-2.327s72.7-19.294,107.155-7.443,52.693,40.794,30.66,54.847S64.212,55.956,30.5,46.44Z" transform="translate(151.79 656.08) rotate(3)" fill="#a5f14e"/>
    </g>
    <g transform="matrix(1, 0, 0, 1, 575.94, 188.78)" filter="url(#Path_240)">
      <path id="Path_240-2" data-name="Path 240" d="M609.257,46.285C484.824,46.285,474.824,16.639,317.4,2.7S23.026,28.046,1.652,140.173C-11,206.551,50.458,246.642,135.542,261.806s207.891-4.8,394.917,19.242,267,74.554,412.163,69.8S1177.338,282.6,1210.4,228.98s41.357-126.309-105.132-190.472C944.99-31.693,733.689,46.285,609.257,46.285Z" transform="matrix(1, -0.02, 0.02, 1, 33, 270.8)" fill="#8ed83a"/>
    </g>
    <g transform="matrix(1, 0, 0, 1, 575.94, 188.78)" filter="url(#Path_134)">
      <path id="Path_134-2" data-name="Path 134" d="M510.116,35.533c-104.184,0-112.557-22.759-244.365-33.463S19.279,21.531,1.383,107.609c-10.591,50.958,40.864,81.736,112.1,93.377s174.062-3.684,330.655,14.772S667.7,272.993,789.236,269.346s196.522-52.394,224.2-93.56,34.628-96.966-88.025-146.224C791.218-24.33,614.3,35.533,510.116,35.533Z" transform="matrix(1, -0.02, 0.02, 1, 133.45, 298.39)" fill="#a5f14e"/>
    </g>
    <g id="undraw_eating_together_tjhx" transform="translate(870.282 283.57)">
      <ellipse id="Ellipse_16" data-name="Ellipse 16" cx="38.387" cy="13.649" rx="38.387" ry="13.649" transform="translate(16.094 274.681)" opacity="0.1"/>
      <ellipse id="Ellipse_17" data-name="Ellipse 17" cx="38.387" cy="13.649" rx="38.387" ry="13.649" transform="translate(636.241 331.11)" opacity="0.1"/>
      <path id="Path_170" data-name="Path 170" d="M935.864,685.262s10.237-34.838-1.928-60.481a55.03,55.03,0,0,1-4.453-34.523,92.554,92.554,0,0,1,4.888-16.208" transform="translate(-262.788 -338.567)" fill="none" stroke="#535461" stroke-miterlimit="10" stroke-width="2"/>
      <path id="Path_171" data-name="Path 171" d="M926.509,553.728c0,4.265,7.729,16.651,7.729,16.651s7.729-12.378,7.729-16.651a7.733,7.733,0,0,0-15.466,0Z" transform="translate(-262.501 -334.444)" fill="#2ba428"/>
      <path id="Path_172" data-name="Path 172" d="M911.318,580.735c2.32,3.583,15.542,9.776,15.542,9.776s-.239-14.6-2.559-18.178a7.729,7.729,0,1,0-12.975,8.4Z" transform="translate(-260.088 -337.796)" fill="#2ba428"/>
      <path id="Path_173" data-name="Path 173" d="M911.448,627.639c3.813,1.919,18.349.6,18.349.6s-7.575-12.48-11.388-14.4a7.729,7.729,0,1,0-6.961,13.8Z" transform="translate(-259.664 -344.292)" fill="#2ba428"/>
      <path id="Path_174" data-name="Path 174" d="M920.21,663.5c3.412,2.559,17.982,3.685,17.982,3.685s-5.357-13.581-8.786-16.114a7.73,7.73,0,1,0-9.2,12.429Z" transform="translate(-261.116 -349.662)" fill="#2ba428"/>
      <path id="Path_175" data-name="Path 175" d="M945.784,592.933c-3.062,2.977-17.334,6.057-17.334,6.057s3.5-14.169,6.56-17.146a7.731,7.731,0,0,1,10.774,11.09Z" transform="translate(-262.788 -339.391)" fill="#2ba428"/>
      <path id="Path_176" data-name="Path 176" d="M955.1,634.617c-3.813,1.919-18.349.6-18.349.6s7.575-12.48,11.388-14.357a7.729,7.729,0,0,1,6.961,13.8Z" transform="translate(-264.007 -345.323)" fill="#2ba428"/>
      <path id="Path_177" data-name="Path 177" d="M958.792,676.738c-3.412,2.559-17.982,3.685-17.982,3.685s5.357-13.581,8.786-16.114a7.731,7.731,0,0,1,9.2,12.429Z" transform="translate(-264.604 -351.608)" fill="#2ba428"/>
      <path id="Path_178" data-name="Path 178" d="M209.276,595.233s21.915-74.317-4.095-129.083a117.652,117.652,0,0,1-9.494-73.678A197.514,197.514,0,0,1,206.12,357.89" transform="translate(-154.778 -306.801)" fill="none" stroke="#535461" stroke-miterlimit="10" stroke-width="2"/>
      <path id="Path_179" data-name="Path 179" d="M189.329,314.5c0,9.111,16.5,35.538,16.5,35.538s16.489-26.444,16.489-35.538a16.5,16.5,0,0,0-33,0Z" transform="translate(-154.169 -298)" fill="#65e510"/>
      <path id="Path_180" data-name="Path 180" d="M156.94,372.178c4.956,7.677,33.166,20.866,33.166,20.866s-.512-31.153-5.468-38.8a16.5,16.5,0,0,0-27.7,17.914Z" transform="translate(-149.052 -305.206)" fill="#65e510"/>
      <path id="Path_181" data-name="Path 181" d="M157.187,472.254c8.138,4.1,39.163,1.271,39.163,1.271s-16.208-26.632-24.3-30.71a16.5,16.5,0,0,0-14.86,29.464Z" transform="translate(-148.114 -319.021)" fill="#65e510"/>
      <path id="Path_182" data-name="Path 182" d="M175.848,548.773c7.328,5.417,38.387,7.865,38.387,7.865s-11.431-29-18.767-34.395a16.5,16.5,0,1,0-19.62,26.53Z" transform="translate(-151.206 -330.478)" fill="#60ce17"/>
      <path id="Path_183" data-name="Path 183" d="M230.478,398.116c-6.534,6.347-36.988,12.924-36.988,12.924s7.456-30.249,13.99-36.6a16.514,16.514,0,0,1,23.032,23.672Z" transform="translate(-154.782 -308.546)" fill="#65e510"/>
      <path id="Path_184" data-name="Path 184" d="M250.353,487.134c-8.138,4.1-39.163,1.271-39.163,1.271s16.208-26.632,24.3-30.71a16.5,16.5,0,0,1,14.86,29.464Z" transform="translate(-157.383 -321.208)" fill="#65e510"/>
      <path id="Path_185" data-name="Path 185" d="M258.237,577.042c-7.328,5.417-38.387,7.865-38.387,7.865s11.431-29,18.767-34.395a16.5,16.5,0,1,1,19.62,26.53Z" transform="translate(-158.656 -334.632)" fill="#60ce17"/>
      <path id="Path_186" data-name="Path 186" d="M518.491,419.748l-47.54-6.159c-1.928-.247-3.412-.981-3.361-1.621h0c.085-.64,1.706-.938,3.677-.657l47.438,6.867c1.305.188,2.295.682,2.235,1.117h0C520.88,419.706,519.788,419.919,518.491,419.748Z" transform="translate(-195.062 -314.636)" fill="#979797"/>
      <path id="Path_187" data-name="Path 187" d="M518.767,421.311l-47.685-4.931c-1.936-.2-3.583.162-3.642.8h0c-.06.64,1.484,1.314,3.412,1.484l47.771,4.265c1.314.119,2.389-.136,2.431-.572h0C521.088,421.9,520.073,421.448,518.767,421.311Z" transform="translate(-195.04 -315.389)" fill="#979797"/>
      <path id="Path_188" data-name="Path 188" d="M611.046,462.748l47.532-6.159c1.928-.247,3.412-.981,3.361-1.621h0c-.085-.64-1.706-.938-3.677-.657l-47.438,6.867c-1.305.188-2.295.682-2.235,1.117h0C608.649,462.706,609.741,462.919,611.046,462.748Z" transform="translate(-215.782 -320.955)" fill="#979797"/>
      <path id="Path_189" data-name="Path 189" d="M610.716,464.311l47.685-4.931c1.936-.2,3.583.162,3.643.8h0c.06.64-1.484,1.314-3.412,1.484l-47.771,4.265c-1.314.119-2.388-.137-2.431-.572h0C608.4,464.9,609.411,464.448,610.716,464.311Z" transform="translate(-215.759 -321.708)" fill="#979797"/>
      <rect id="Rectangle_26" data-name="Rectangle 26" width="11.593" height="166.225" transform="translate(226.429 192.848)" fill="#40414d"/>
      <rect id="Rectangle_27" data-name="Rectangle 27" width="11.593" height="166.225" transform="translate(479.63 192.848)" fill="#40414d"/>
      <path id="Path_190" data-name="Path 190" d="M257.017,386.78H524.873a18.767,18.767,0,0,1,18.767,18.767v2.491H238.25v-2.491a18.767,18.767,0,0,1,18.767-18.767Z" transform="translate(-35.015 -207.461)" fill="#dfe6f5"/>
      <path id="Path_191" data-name="Path 191" d="M256.017,386.78H523.873a18.767,18.767,0,0,1,18.767,18.767v2.491H237.25v-2.491a18.767,18.767,0,0,1,18.767-18.767Z" transform="translate(-34.868 -207.461)" opacity="0.1"/>
      <path id="Path_192" data-name="Path 192" d="M257.017,382.24H524.873a18.767,18.767,0,0,1,18.767,18.767V403.5H238.25v-2.491a18.767,18.767,0,0,1,18.767-18.767Z" transform="translate(-35.015 -206.794)" fill="#dfe6f5"/>
      <ellipse id="Ellipse_18" data-name="Ellipse 18" cx="23.194" cy="23.194" rx="23.194" ry="23.194" transform="translate(332.736 115.528)" fill="#ffd77c" stroke="#ffab50" stroke-miterlimit="10" stroke-width="1"/>
      <ellipse id="Ellipse_19" data-name="Ellipse 19" cx="18.383" cy="18.383" rx="18.383" ry="18.383" transform="translate(337.547 120.339)" fill="#ffd77c" stroke="#ffab50" stroke-miterlimit="10" stroke-width="1"/>
      <ellipse id="Ellipse_20" data-name="Ellipse 20" cx="14.007" cy="14.007" rx="14.007" ry="14.007" transform="translate(341.923 124.715)" fill="#ffd77c" stroke="#ffab50" stroke-miterlimit="10" stroke-width="1"/>
      <ellipse id="Ellipse_21" data-name="Ellipse 21" cx="7.874" cy="7.874" rx="7.874" ry="7.874" transform="translate(348.057 130.849)" fill="#ffd77c" stroke="#ffab50" stroke-miterlimit="10" stroke-width="1"/>
      <ellipse id="Ellipse_22" data-name="Ellipse 22" cx="23.194" cy="23.194" rx="23.194" ry="23.194" transform="translate(319.207 128.093)" fill="#ffd77c" stroke="#ffab50" stroke-miterlimit="10" stroke-width="1"/>
      <ellipse id="Ellipse_23" data-name="Ellipse 23" cx="18.383" cy="18.383" rx="18.383" ry="18.383" transform="translate(324.018 132.905)" fill="#ffd77c" stroke="#ffab50" stroke-miterlimit="10" stroke-width="1"/>
      <ellipse id="Ellipse_24" data-name="Ellipse 24" cx="14.007" cy="14.007" rx="14.007" ry="14.007" transform="translate(328.394 137.281)" fill="#ffd77c" stroke="#ffab50" stroke-miterlimit="10" stroke-width="1"/>
      <ellipse id="Ellipse_25" data-name="Ellipse 25" cx="7.874" cy="7.874" rx="7.874" ry="7.874" transform="translate(334.527 143.414)" fill="#ffd77c" stroke="#ffab50" stroke-miterlimit="10" stroke-width="1"/>
      <ellipse id="Ellipse_26" data-name="Ellipse 26" cx="23.194" cy="23.194" rx="23.194" ry="23.194" transform="translate(346.265 128.093)" fill="#ffd77c" stroke="#ffab50" stroke-miterlimit="10" stroke-width="1"/>
      <ellipse id="Ellipse_27" data-name="Ellipse 27" cx="18.383" cy="18.383" rx="18.383" ry="18.383" transform="translate(351.076 132.905)" fill="#ffd77c" stroke="#ffab50" stroke-miterlimit="10" stroke-width="1"/>
      <ellipse id="Ellipse_28" data-name="Ellipse 28" cx="14.007" cy="14.007" rx="14.007" ry="14.007" transform="translate(355.452 137.281)" fill="#ffd77c" stroke="#ffab50" stroke-miterlimit="10" stroke-width="1"/>
      <ellipse id="Ellipse_29" data-name="Ellipse 29" cx="7.874" cy="7.874" rx="7.874" ry="7.874" transform="translate(361.586 143.414)" fill="#ffd77c" stroke="#ffab50" stroke-miterlimit="10" stroke-width="1"/>
      <path id="Path_193" data-name="Path 193" d="M360.6,346h96.642v4.538A34.122,34.122,0,0,1,423.12,384.66h-28.4A34.122,34.122,0,0,1,360.6,350.538Z" transform="translate(-52.995 -201.468)" fill="#fff8bb"/>
      <path id="Path_194" data-name="Path 194" d="M601.819,467.42a38.651,38.651,0,0,1-38.634,37.688H544a38.742,38.742,0,0,0,8.53.972h19.33a38.66,38.66,0,0,0,38.677-38.66Z" transform="translate(-206.291 -322.897)" opacity="0.1"/>
      <rect id="Rectangle_28" data-name="Rectangle 28" width="11.593" height="251.273" transform="translate(485.431 319.449) rotate(90)" fill="#40414d"/>
      <rect id="Rectangle_29" data-name="Rectangle 29" width="10.143" height="92.283" transform="translate(129.805 278.963)" fill="#40414d"/>
      <rect id="Rectangle_30" data-name="Rectangle 30" width="10.143" height="92.283" transform="translate(209.914 278.963)" fill="#40414d"/>
      <path id="Path_195" data-name="Path 195" d="M399.7,605.268c0,6.159-20.883,11.158-46.645,11.158s-45.629-4.99-45.629-11.158S327.3,594.11,353.059,594.11,399.7,599.134,399.7,605.268Z" transform="translate(-171.526 -341.515)" fill="#f6c6cd"/>
      <path id="Path_196" data-name="Path 196" d="M142.66,485.75H249.137v9.3a8.957,8.957,0,0,1-8.957,8.957H158.015A15.355,15.355,0,0,1,142.66,488.65Z" transform="translate(-20.968 -222.005)" fill="#40414d"/>
      <path id="Path_197" data-name="Path 197" d="M5.988,0H8.24a5.971,5.971,0,0,1,5.971,5.971V126.746H10.8A10.8,10.8,0,0,1,0,115.946V5.971A5.971,5.971,0,0,1,5.988,0Z" transform="translate(97.771 158.365) rotate(-12.72)" fill="#40414d"/>
      <rect id="Rectangle_31" data-name="Rectangle 31" width="10.143" height="92.283" transform="translate(583.753 372.883) rotate(180)" fill="#40414d"/>
      <rect id="Rectangle_32" data-name="Rectangle 32" width="10.143" height="92.283" transform="translate(503.644 372.883) rotate(180)" fill="#40414d"/>
      <path id="Path_198" data-name="Path 198" d="M717.13,607.183c0,6.159,20.883,11.158,46.645,11.158s45.629-4.99,45.629-11.158S789.528,596,763.775,596,717.13,601.024,717.13,607.183Z" transform="translate(-231.733 -341.792)" fill="#f6c6cd"/>
      <path id="Path_199" data-name="Path 199" d="M15.355,0H97.52a8.957,8.957,0,0,1,8.957,8.957v9.3H0v-2.9A15.355,15.355,0,0,1,15.355,0Z" transform="translate(591.866 283.646) rotate(180)" fill="#40414d"/>
      <path id="Path_200" data-name="Path 200" d="M10.783,0h3.412V120.791a5.971,5.971,0,0,1-5.971,5.971H5.971A5.971,5.971,0,0,1,0,120.791V10.8A10.8,10.8,0,0,1,10.782,0Z" transform="translate(587.879 283.63) rotate(-167.28)" fill="#40414d"/>
      <path id="Path_201" data-name="Path 201" d="M801.277,528.818l2.994-.947s-5.118-34.19-5.067-64.831V460.4c.06-1.911.128-3.8.222-5.656.119-2.371.145-4.632.128-6.824.282-29.507-11.345-41.97-11.345-41.97s-13.649-19.467-21.829-23.254c-.708-2.218-1.518-5.067-2.235-8.377.264-.179.52-.358.768-.546a110.426,110.426,0,0,0,9.682-8.078c4.2-3.933,8.223-8.727,8-14.135a10.364,10.364,0,0,0-.051-1.578c-.776-6.526-7.558-11.439-10.3-17.624-2.3-5.2-1.612-10.979-3.625-16.251s-9.042-10.177-14.348-7.4c-1.953,1.024-3.131,2.832-4.76,4.206-4.043,3.412-10.561,3.728-16.088,2.175s-7.166-7.882-14.894-7.9a8.983,8.983,0,0,1,1.953.93,12.3,12.3,0,0,0-1.953-.171,8.53,8.53,0,0,1,5.9,7.174,5.893,5.893,0,0,1-.068.614c-3.088,1.663-7.149.717-10.851.657s-7.916,1.808-7.549,4.837a2.926,2.926,0,0,0,0,1.041c.486,2.295,3.557,4.026,3.933,6.15v.171a63.774,63.774,0,0,1-21.881,6.381c-.247,0-.136.3.222.734h-.222c-1.39.145,8.334,7.831,9.443,8.334a135.725,135.725,0,0,0,13.214,4.615l.375.119a26.9,26.9,0,0,0-2.192,10.655c0,13.137,9.443,24.175,22.23,27.3,2.389,2.789,4.9,5.852,7.183,8.9h-.162s-14.7,19.552-14.229,48.752a85.354,85.354,0,0,0,.58,10.953c-9.452-.537-29.763-3.028-45.211-14.34-20.84-15.244-44.085-10.672-39.24-1.527s29.66,16.762,33.661,17.53c.375.068,1.245.273,2.491.58-4.931.93-8.309,2.559-8.1,4.751.4,4.188,21.642,17.53,34.463,18.289,8.471.5,18.665,3.114,26.709,5.408.776,17.53-3.463,22.785-3.463,22.785s1.263.776,3.352,1.877l-.9,2.559c-5.2,3-11.618,6.133-17.453,7.4a95.872,95.872,0,0,0-21.531,7.166l-28.859,13.947a16.711,16.711,0,0,0-9.554,13.128c-.631,5.912,1.152,13.3,10.808,19.159.6,4.8,3.532,10.407,11.235,15.542,14.928,9.929,54.16,39.675,59.5,43.736.1,7.259-.853,21.821-9.81,24.09-11.226,2.849-2.192,13.649,6.884,13.222a11.892,11.892,0,0,0,6.748.495c9.622-2.286,44.887-14.5,47.293-32.774a17.513,17.513,0,0,0,.136-2.389,15.934,15.934,0,0,0-2.235-8.88,15.99,15.99,0,0,1,.913,2.559c-2.917-6.654-10.023-10.834-15.551-13.188v-.188c-.853-.333-1.706-.606-2.406-.853a7.157,7.157,0,0,0-.111-1.476l-55.3-38.106s24.047-19.816,48.9-16.762S786.63,557.6,786.63,557.6s12.745-12.122,14.024-26.078l.8-.213S801.4,530.431,801.277,528.818Z" transform="translate(-220.305 -299.349)" fill="url(#linear-gradient)"/>
      <path id="Path_202" data-name="Path 202" d="M747.595,680.62s2.261,24.883-9.051,27.9-.751,15.082,8.292,12.8,42.234-14.331,44.495-32.416-22.623-24.133-22.623-24.133Z" transform="translate(-234.158 -351.898)" fill="#b8616e"/>
      <path id="Path_203" data-name="Path 203" d="M747.595,680.62s2.261,24.883-9.051,27.9-.751,15.082,8.292,12.8,42.234-14.331,44.495-32.416-22.623-24.133-22.623-24.133Z" transform="translate(-234.158 -351.898)" opacity="0.05"/>
      <path id="Path_204" data-name="Path 204" d="M752.925,681.5s2.261,24.883-9.051,27.9-.751,15.082,8.292,12.8,42.234-14.331,44.495-32.416-22.623-24.133-22.623-24.133Z" transform="translate(-234.942 -352.028)" fill="#d96d7d"/>
      <path id="Path_205" data-name="Path 205" d="M779.1,666.55,758,682.391s.094,1.075.154,2.789c7.967-2.184,25.327-7.984,25.591-17.061A40.863,40.863,0,0,0,779.1,666.55Z" transform="translate(-237.739 -352.16)" opacity="0.1"/>
      <rect id="Rectangle_33" data-name="Rectangle 33" width="9.051" height="6.79" transform="translate(519.109 97.571)" fill="#f8bdc5"/>
      <path id="Path_206" data-name="Path 206" d="M742.855,541s-14.374,11.294-26.18,13.973a87.146,87.146,0,0,0-20.26,7.089l-27.152,13.8a16.5,16.5,0,0,0-8.991,12.992c-.776,7.677,2.312,17.778,20.738,23.783L739.076,660.9l18.1-15.082-61.837-47.5,47.515-29.413Z" transform="translate(-223.362 -333.71)" fill="#758ac8"/>
      <path id="Path_207" data-name="Path 207" d="M742.855,541s-14.374,11.294-26.18,13.973a87.146,87.146,0,0,0-20.26,7.089l-27.152,13.8a16.5,16.5,0,0,0-8.991,12.992c-.776,7.677,2.312,17.778,20.738,23.783L739.076,660.9l18.1-15.082-61.837-47.5,47.515-29.413Z" transform="translate(-223.362 -333.71)" opacity="0.1"/>
      <path id="Path_208" data-name="Path 208" d="M732.715,477.616s-27.9.751-47.515-14.331-41.475-10.561-36.954-1.51,27.9,16.592,31.674,17.342,58.067,15.841,58.067,15.841Z" transform="translate(-221.522 -320.843)" fill="#f8bdc5"/>
      <path id="Path_209" data-name="Path 209" d="M732.715,477.616s-27.9.751-47.515-14.331-41.475-10.561-36.954-1.51,27.9,16.592,31.674,17.342,58.067,15.841,58.067,15.841Z" transform="translate(-221.522 -320.843)" opacity="0.05"/>
      <path id="Path_210" data-name="Path 210" d="M739.324,533.06l-9.051,27.152s-50.9,31.3-55.056,35.444c-3.225,3.224-7.541,15.841,7.541,26.393s56.557,43.744,56.557,43.744,31.674-6.824,29.413-19.62l-52.036-37.7s22.623-19.62,46-16.592,27.152-1.51,27.152-1.51,18.1-18.119,12.062-35.435S739.324,533.06,739.324,533.06Z" transform="translate(-225.111 -332.543)" fill="#758ac8"/>
      <path id="Path_211" data-name="Path 211" d="M737.65,385.1S763.293,413,761.783,421.3s20.362-24.133,20.362-24.133-6.824-16.592-5.28-34.693Z" transform="translate(-234.749 -307.474)" fill="#f8bdc5"/>
      <path id="Path_212" data-name="Path 212" d="M760.5,416.1a74.943,74.943,0,0,1,5.519-5.263,76.521,76.521,0,0,0,10.569-10.552c5.28-6.824,24.883,22.623,24.883,22.623s12.062,13.572,10.561,46,1.885,75.793,1.885,75.793l-4.564,1.271a26.128,26.128,0,0,1-23.118-3.284c-6.023-4.163-13.649-8.531-19.449-8.923-11.311-.751-21.5-7.166-21.5-7.166s4.9-11.687-2.636-49.4,11.678-64.516,11.678-64.516S755.854,420.893,760.5,416.1Z" transform="translate(-235.227 -312.88)" opacity="0.1"/>
      <path id="Path_213" data-name="Path 213" d="M816.563,540.908l-4.521,1.51-2.687.9a26.12,26.12,0,0,1-23.118-3.284c-6.014-4.154-13.649-8.53-19.449-8.923-11.294-.759-24.09-9.051-24.09-9.051s7.541-9.8,0-47.515,11.687-64.482,11.687-64.482,1.518,8.164,6.167,3.361a74.034,74.034,0,0,1,5.511-5.255,76.521,76.521,0,0,0,10.569-10.552c5.28-6.824,24.883,22.623,24.883,22.623s12.062,13.572,10.561,46c-.162,3.412-.23,6.927-.239,10.484C811.726,507.076,816.563,540.908,816.563,540.908Z" transform="translate(-235.233 -312.488)" fill="#5e52ad"/>
      <path id="Path_214" data-name="Path 214" d="M770.773,478.35l.751,16.592s-39.974,2.261-48.265-6.031,22.606,24.389,29.43,26.393c6.406,1.885,22.947,3.549,31.622,3.719a12.8,12.8,0,0,0,11.943-7.242,12.071,12.071,0,0,0,.938-7.038c-1.51-9.8,0-30.923,0-30.923Z" transform="translate(-232.428 -323.837)" opacity="0.1"/>
      <path id="Path_215" data-name="Path 215" d="M764.518,476.58l.751,16.592S725.295,495.432,717,487.14s-38.293-6.458-37.7,0c.375,4.146,20.362,17.342,32.416,18.1s27.895,6.287,34.719,8.292c6.406,1.885,22.947,3.549,31.622,3.719A12.8,12.8,0,0,0,790,510.011a12.07,12.07,0,0,0,.938-7.038c-1.51-9.8,0-30.923,0-30.923Z" transform="translate(-226.172 -323.577)" fill="#f8bdc5"/>
      <path id="Path_216" data-name="Path 216" d="M787.177,420.777s-17.343,2.261-15.082,27.9,5.28,27.9,5.28,27.9,25.643-2.261,28.654-3.02,1.51-28.654,1.51-28.654S806.78,420.026,787.177,420.777Z" transform="translate(-239.781 -316.04)" opacity="0.1"/>
      <path id="Path_217" data-name="Path 217" d="M787.177,419.9s-17.343,2.261-15.082,27.9,5.28,27.9,5.28,27.9,25.643-2.261,28.654-3.02,1.51-28.654,1.51-28.654S806.78,419.129,787.177,419.9Z" transform="translate(-239.781 -315.911)" fill="#5e52ad"/>
      <path id="Path_218" data-name="Path 218" d="M775.855,378.777c-1.186-5.971,1.245-7.814,1.885-15.457L738.5,385.943s4.5,4.9,9.605,11.183a27.957,27.957,0,0,0,6.986.853C765.371,398.022,770.993,386.984,775.855,378.777Z" transform="translate(-234.874 -307.599)" opacity="0.1"/>
      <ellipse id="Ellipse_30" data-name="Ellipse 30" cx="27.903" cy="27.903" rx="27.903" ry="27.903" transform="translate(491.582 33.849)" fill="#f8bdc5"/>
      <path id="Path_219" data-name="Path 219" d="M755.915,353.139c-4.265,2.713-4.325,8.846-1.578,13.094s7.481,7.055,12.036,9.7c1.322.768,2.781,1.561,4.265,1.39a6.287,6.287,0,0,0,3.054-1.544,105.31,105.31,0,0,0,9.11-7.993c4.146-4.078,8.13-9.1,7.481-14.792-.734-6.458-7.114-11.32-9.691-17.436-2.167-5.118-1.518-10.859-3.412-16.089s-8.53-10.066-13.5-7.328c-1.834,1.007-2.943,2.807-4.479,4.163-3.8,3.361-9.938,3.694-15.142,2.158s-6.748-7.805-14.007-7.822c3.608,1.271,6.048,5.033,5.494,8.462-2.909,1.646-6.731.708-10.237.648s-7.677,1.9-7.072,5.059c.529,2.559,4.223,4.461,3.677,7.021a57.8,57.8,0,0,1-20.593,6.313c-1.305.145,7.839,7.746,8.88,8.249a122.637,122.637,0,0,0,12.429,4.564C733.6,354.734,744.825,356.082,755.915,353.139Z" transform="translate(-229.392 -299.858)" opacity="0.1"/>
      <path id="Path_220" data-name="Path 220" d="M755.915,352.249c-4.265,2.713-4.325,8.846-1.578,13.094s7.481,7.055,12.036,9.7c1.322.768,2.781,1.561,4.265,1.39a6.288,6.288,0,0,0,3.054-1.544,105.31,105.31,0,0,0,9.11-7.993c4.146-4.078,8.13-9.1,7.481-14.792-.734-6.458-7.114-11.32-9.691-17.436-2.167-5.118-1.518-10.859-3.412-16.088s-8.53-10.066-13.5-7.328c-1.834,1.007-2.943,2.807-4.479,4.163-3.8,3.361-9.938,3.694-15.142,2.158s-6.748-7.805-14.007-7.822c3.608,1.271,6.048,5.033,5.494,8.462-2.909,1.646-6.731.708-10.237.648s-7.677,1.9-7.072,5.059c.529,2.559,4.223,4.461,3.677,7.021a57.8,57.8,0,0,1-20.593,6.313c-1.305.145,7.839,7.746,8.88,8.249a122.629,122.629,0,0,0,12.429,4.564C733.6,353.852,744.825,355.175,755.915,352.249Z" transform="translate(-229.392 -299.727)" fill="#916168"/>
      <path id="Path_221" data-name="Path 221" d="M794.744,680.89a16.643,16.643,0,0,1,1.22,8.88c-2.261,18.1-35.444,30.164-44.495,32.416-4.769,1.194-9.964-1.6-12.139-4.948,1.4,3.941,7.422,7.822,12.9,6.458,9.051-2.261,42.234-14.331,44.495-32.416A16.558,16.558,0,0,0,794.744,680.89Z" transform="translate(-234.995 -354.267)" fill="#fff" opacity="0.1"/>
      <path id="Path_222" data-name="Path 222" d="M481.6,647.29h0c-.674-1.518-4.171-4.478-21.036-5.118-11.55-.435-15.483-6.534-16.549-12.489,3.8-.495,6.765-1.177,7.737-2.124,0,0-.051-.273-.137-.759l.137-.1a79.931,79.931,0,0,1-1.152-13,50.019,50.019,0,0,1,1.177-11.09,32.705,32.705,0,0,0,.589-7.311c.094-14.5-5-39.991-5-39.991l-.7-21.181a14.715,14.715,0,0,0-8.01-12.71,12.054,12.054,0,0,0-5.417-1.348s-26.734-4.214-50.8-6.509c-1.706-1.373-7.72-5.076-21.505-2.952L353,487.387a6.6,6.6,0,0,1-.136-.853c.281-2.952,2.252-7.4,11.439-7.677l1.919,1.706s.341-.674.913-1.706c11.4-.128,73.481-.759,76.68,0,3.523.853,34.386-6.023,35.273-6.876,11.994-11.7-35.273-6.023-35.273-6.023-4.649.759-19.671-.145-35.06-1.4,7.618-11.422,14.783-50.193,14.783-50.193s27.3-13.76,19.4-21.5-31.742,17.2-31.742,17.2-9.7,28.381-14.109,36.98c-1.706,3.412-3.915,4.112-5.886,3.719.9-.717,1.476-1.143,1.476-1.143s-19.4-15.483-21.164-21.5a14.364,14.364,0,0,0-1.3-2.824c-.93-5.451-2.559-10.817-6.534-14.391a14.785,14.785,0,0,0-2.2-1.936c-1.075-.768-2.295-1.433-3.31-2.269h0c.572-2.627,1.237-5.357,1.928-8,14.4-1.706,25.591-13.649,25.591-28.151a27.767,27.767,0,0,0-.776-6.492,12.506,12.506,0,0,0,11.09-5.34c2.909-4.333,2.815-10.237.375-14.809a18.332,18.332,0,0,0-3.907-4.931,23.11,23.11,0,0,0-8.957-5.6c-2.926-1.015-6.159-1.621-8.479-3.608a37.608,37.608,0,0,1-2.824-4.265,21.829,21.829,0,0,0-3.412-3.975c-4.265-4.393-10.288-7.1-16.421-8.292-7.473-1.459-15.193-.938-22.793-.418-2.841.2-6.176.7-7.456,3.173-.964,1.86-.333,4.086-.461,6.159-.4,6.594-7.942,10.237-14.5,11.832s-14.382,2.977-17.547,8.761c-2.875,5.221-.853,11.55.068,17.411a42.592,42.592,0,0,1-6.423,29.507c-2.883,4.41-6.6,8.334-8.88,13.069a24.918,24.918,0,0,0-1.655,16.941c.427,1.655,1.041,3.344.734,5.033a8.778,8.778,0,0,1-2,3.745,45.211,45.211,0,0,1-32.16,16.66,9.213,9.213,0,0,0,2.934,4.427,21.2,21.2,0,0,0,6.091,4.206,91.966,91.966,0,0,0,18.682,6.952c4.351,1.1,8.9,1.885,13.325,1.135s8.744-3.284,10.561-7.294c1.058-2.32,1.211-4.948,2.15-7.311,1.868-4.726,6.5-7.788,9.631-11.84a296.073,296.073,0,0,0-1.493,31.426v8.991c0,11.849-.853,20.021-8.2,34.821a8.838,8.838,0,0,0-1.1,5.118,5.613,5.613,0,0,0,1.919,5.212,50.532,50.532,0,0,0-.742,8.94c-.1,10.782,3.54,25.259,22.853,28.927l34.386-1.706s48.5-9.46,61.718-2.559a4.879,4.879,0,0,1,3.864,4.76,10.947,10.947,0,0,1-.333,2.124,33.391,33.391,0,0,0-.418,6.765c-.06,14.5,3.062,47.412,3.062,47.412v13.956c-2.2,3.31-4.914,8.206-4.564,11.815v.239a.738.738,0,0,0,.051.316c.051.1,0,.188.06.282a.822.822,0,0,1,.077.273,2.107,2.107,0,0,0,.111.3c.043.094.06.154.094.23s.111.222.171.324l.1.179a4.12,4.12,0,0,0,.341.469c4.41,5.118,26.444,15.022,33.508,14.621,7.5-.427,32.62.853,33.508-10.322a1.356,1.356,0,0,0-.06-1.015Z" transform="translate(-161.515 -300.101)" fill="url(#linear-gradient-2)"/>
      <path id="Path_223" data-name="Path 223" d="M448.652,678.357s-10.237,12.8-5.971,17.914,25.591,14.9,32.416,14.5c7.251-.427,31.563.853,32.416-10.237,0,0,1.706-5.118-20.473-5.971s-15.355-23.885-15.355-23.885Z" transform="translate(-191.249 -352.767)" fill="#594c76"/>
      <path id="Path_224" data-name="Path 224" d="M306.578,552.9s-10.237,34.975,20.473,40.946l33.269-1.706s46.918-9.383,59.713-2.559c0,0,5.118.853,3.412,7.677S426,650.151,426,650.151v15.355s29,0,32.416-3.412c0,0-2.559-13.649,0-24.738s-4.265-46.064-4.265-46.064l-.674-21.053a14.638,14.638,0,0,0-7.729-12.625,11.43,11.43,0,0,0-5.238-1.331s-58.007-9.383-78.48-7.677S306.578,552.9,306.578,552.9Z" transform="translate(-171.16 -334.797)" opacity="0.1"/>
      <path id="Path_225" data-name="Path 225" d="M306.578,551.9s-10.237,34.975,20.473,40.946l33.269-1.706s46.918-9.383,59.713-2.559c0,0,5.118.853,3.412,7.677S426,649.151,426,649.151v15.355s29,0,32.416-3.412c0,0-2.559-13.649,0-24.738s-4.265-46.064-4.265-46.064l-.674-21.053a14.638,14.638,0,0,0-7.729-12.625,11.43,11.43,0,0,0-5.238-1.331s-58.007-9.384-78.48-7.677S306.578,551.9,306.578,551.9Z" transform="translate(-171.16 -334.65)" fill="#8b9cd1"/>
      <path id="Path_226" data-name="Path 226" d="M408.684,462.167s6.824,8.53,11.09,0,13.649-36.681,13.649-36.681,23.032-24.738,30.71-17.061-18.767,21.326-18.767,21.326-9.384,52.036-17.914,52.889-21.326,0-21.326,0l-4.265-9.383Z" transform="translate(-185.403 -314.01)" fill="#f8bdc5"/>
      <path id="Path_227" data-name="Path 227" d="M408.684,462.167s6.824,8.53,11.09,0,13.649-36.681,13.649-36.681,23.032-24.738,30.71-17.061-18.767,21.326-18.767,21.326-9.384,52.036-17.914,52.889-21.326,0-21.326,0l-4.265-9.383Z" transform="translate(-185.403 -314.01)" opacity="0.05"/>
      <path id="Path_228" data-name="Path 228" d="M371.215,421.68s15.355,17.914,17.061,23.885,20.473,21.326,20.473,21.326-13.649,10.237-11.09,15.355-17.914-17.061-17.914-17.061L355.86,430.21Z" transform="translate(-178.643 -316.175)" fill="#eb6475"/>
      <path id="Path_229" data-name="Path 229" d="M371.215,421.68s15.355,17.914,17.061,23.885,20.473,21.326,20.473,21.326-13.649,10.237-11.09,15.355-17.914-17.061-17.914-17.061L355.86,430.21Z" transform="translate(-178.643 -316.175)" opacity="0.1"/>
      <path id="Path_230" data-name="Path 230" d="M379.1,396.376s-7.677,24.738-7.677,34.122S339,427.938,339.857,422.82s18.767-23.885,19.62-31.563S379.1,396.376,379.1,396.376Z" transform="translate(-176.289 -311.344)" fill="#f8bdc5"/>
      <path id="Path_231" data-name="Path 231" d="M348.17,417.59s-29.857-7.677-34.122,35.828,3.412,48.624-9.384,75.068,87.011,3.412,87.011,3.412-5.118-5.971-21.326-3.412l-7.677-23.032s-2.559-10.237,11.943-10.237,7.677-29.857,7.677-29.857-7.677-25.591-11.943-28.151S358.407,419.3,348.17,417.59Z" transform="translate(-170.953 -315.497)" opacity="0.1"/>
      <path id="Path_232" data-name="Path 232" d="M348.17,415.59s-29.857-7.677-34.122,35.828,3.412,48.624-9.384,75.068,87.011,3.412,87.011,3.412-5.118-5.971-21.326-3.412l-7.677-23.032s-2.559-10.237,11.943-10.237,7.677-29.857,7.677-29.857-7.677-25.591-11.943-28.151S358.407,417.3,348.17,415.59Z" transform="translate(-170.953 -315.204)" fill="#eb6475"/>
      <path id="Path_233" data-name="Path 233" d="M390.125,487.68S452.4,494.5,462.634,492.8c0,0,45.723-5.63,34.122,5.971-.853.853-30.71,7.677-34.122,6.824s-75.921,0-75.921,0l-.853-8.53Z" transform="translate(-183.052 -325.874)" fill="#f8bdc5"/>
      <path id="Path_234" data-name="Path 234" d="M334.424,457l45.211,40.946s8.53-17.061,11.09-17.061-30.71-50.33-30.71-50.33-8.53-10.237-13.649-5.118S325.894,427.139,334.424,457Z" transform="translate(-175.121 -316.516)" opacity="0.1"/>
      <path id="Path_235" data-name="Path 235" d="M333.424,455l45.211,40.946s8.53-17.061,11.09-17.061-30.71-50.33-30.71-50.33-8.53-10.237-13.649-5.118S324.894,425.139,333.424,455Z" transform="translate(-174.974 -316.222)" fill="#eb6475"/>
      <ellipse id="Ellipse_31" data-name="Ellipse 31" cx="28.151" cy="28.151" rx="28.151" ry="28.151" transform="translate(166.981 44.085)" fill="#f8bdc5"/>
      <path id="Path_236" data-name="Path 236" d="M382.128,365.8c4.777,1.885,10.629-.375,13.444-4.666s2.73-10.134.358-14.689a20.8,20.8,0,0,0-11.593-9.588c-2.934-1.041-6.2-1.638-8.454-3.788-1.425-1.356-2.269-3.19-3.335-4.845-3.984-6.21-11.09-9.878-18.315-11.32s-14.7-.93-22.051-.418c-2.747.2-5.971.691-7.217,3.148-.93,1.843-.324,4.052-.444,6.108-.384,6.543-7.677,10.168-14.05,11.738s-13.76,3.045-16.865,8.812c-2.781,5.178-.793,11.456.068,17.274a43.113,43.113,0,0,1-6.21,29.2c-2.789,4.376-6.381,8.266-8.59,12.966a25.284,25.284,0,0,0-1.6,16.8c.418,1.646,1.007,3.318.717,4.99a8.778,8.778,0,0,1-1.928,3.711,43.4,43.4,0,0,1-31.111,16.566c.972,3.66,4.513,5.971,7.882,7.677a87.6,87.6,0,0,0,18.068,6.893c4.206,1.092,8.607,1.868,12.889,1.126s8.454-3.259,10.237-7.234c1.024-2.3,1.177-4.905,2.081-7.259,2.039-5.28,7.473-8.471,10.39-13.325,2.789-4.641,3.873-5.186,4.581-10.544s2.269-11.141,6.671-14.289c4.606-3.3,11.09-2.67,16.208-.136s8.283,1.544,12.557,5.263a104.071,104.071,0,0,0,24.917,16.054c-.853-7.439-2.226-15.739-8.266-20.166-1.706-1.271-3.864-2.244-4.768-4.188-1.442-3.1,1.024-6.876-.094-10.109s-5.366-4.427-7.251-7.362c-1.6-2.491-1.169-5.877.333-8.437s3.873-4.453,6.236-6.244q3.148-2.38,6.381-4.649a22.794,22.794,0,0,0,5.186-4.521c.853-1.169,1.416-3.728,2.6-4.555C374.775,359.739,379.364,364.721,382.128,365.8Z" transform="translate(-162.344 -300.64)" opacity="0.1"/>
      <path id="Path_237" data-name="Path 237" d="M381.128,364.8c4.777,1.885,10.629-.375,13.444-4.666s2.73-10.134.358-14.689a20.8,20.8,0,0,0-11.593-9.588c-2.934-1.041-6.2-1.638-8.454-3.788-1.425-1.356-2.269-3.19-3.335-4.845-3.984-6.21-11.09-9.878-18.315-11.32s-14.7-.93-22.051-.418c-2.747.2-5.971.691-7.217,3.148-.93,1.843-.324,4.052-.444,6.108-.384,6.543-7.677,10.168-14.05,11.738s-13.76,3.045-16.865,8.812c-2.781,5.178-.793,11.456.068,17.274a43.113,43.113,0,0,1-6.21,29.2c-2.789,4.376-6.381,8.266-8.59,12.966a25.284,25.284,0,0,0-1.6,16.805c.418,1.646,1.007,3.318.717,4.99a8.778,8.778,0,0,1-1.928,3.711,43.4,43.4,0,0,1-31.111,16.566c.972,3.66,4.513,5.971,7.882,7.677a87.6,87.6,0,0,0,18.068,6.893c4.206,1.092,8.607,1.868,12.889,1.126s8.454-3.259,10.237-7.234c1.024-2.3,1.177-4.9,2.081-7.259,2.039-5.28,7.473-8.471,10.39-13.325,2.789-4.641,3.873-5.186,4.581-10.544s2.269-11.141,6.671-14.289c4.606-3.3,11.09-2.67,16.208-.136s8.283,1.544,12.557,5.263a104.071,104.071,0,0,0,24.917,16.054c-.853-7.439-2.226-15.739-8.266-20.166-1.706-1.271-3.864-2.243-4.769-4.188-1.442-3.1,1.024-6.876-.094-10.109s-5.366-4.427-7.251-7.362c-1.6-2.491-1.169-5.878.333-8.437s3.873-4.453,6.236-6.244q3.148-2.38,6.381-4.649a22.794,22.794,0,0,0,5.186-4.521c.853-1.169,1.416-3.728,2.6-4.555C373.775,358.739,378.364,363.721,381.128,364.8Z" transform="translate(-162.197 -300.493)" fill="#916168"/>
      <g id="Group_34" data-name="Group 34" transform="translate(250.363 317.913)" opacity="0.1">
        <path id="Path_238" data-name="Path 238" d="M475.718,677.4a29.48,29.48,0,0,1,.972-6.722l-.427.145a29.7,29.7,0,0,0-.546,6.577Z" transform="translate(-446.618 -670.68)" fill="#fff"/>
        <path id="Path_239" data-name="Path 239" d="M475.092,712.764c-6.824.4-28.151-9.383-32.416-14.5a4.546,4.546,0,0,1-.99-2.423,5.357,5.357,0,0,0,.99,4.129c4.265,5.118,25.591,14.9,32.416,14.5,7.251-.427,31.563.853,32.416-10.237a1.382,1.382,0,0,0-.119-.9C505.434,713.549,482.163,712.346,475.092,712.764Z" transform="translate(-441.607 -674.377)" fill="#fff"/>
      </g>
      <rect id="Rectangle_34" data-name="Rectangle 34" width="0.853" height="34.975" transform="translate(317.543 101.666)" fill="#ffd77c" stroke="#ffab50" stroke-miterlimit="10" stroke-width="0.25"/>
      <rect id="Rectangle_35" data-name="Rectangle 35" width="0.853" height="34.975" transform="translate(318.396 101.666)" fill="#ffd77c" stroke="#ffab50" stroke-miterlimit="10" stroke-width="0.25"/>
      <rect id="Rectangle_36" data-name="Rectangle 36" width="0.853" height="34.975" transform="translate(319.249 101.666)" fill="#ffd77c" stroke="#ffab50" stroke-miterlimit="10" stroke-width="0.25"/>
      <rect id="Rectangle_37" data-name="Rectangle 37" width="0.853" height="34.975" transform="translate(320.102 101.666)" fill="#ffd77c" stroke="#ffab50" stroke-miterlimit="10" stroke-width="0.25"/>
      <rect id="Rectangle_38" data-name="Rectangle 38" width="0.853" height="34.975" transform="translate(320.955 101.666)" fill="#ffd77c" stroke="#ffab50" stroke-miterlimit="10" stroke-width="0.25"/>
      <rect id="Rectangle_39" data-name="Rectangle 39" width="0.853" height="34.975" transform="translate(321.808 101.666)" fill="#ffd77c" stroke="#ffab50" stroke-miterlimit="10" stroke-width="0.25"/>
      <rect id="Rectangle_40" data-name="Rectangle 40" width="0.853" height="34.975" transform="translate(322.661 101.666)" fill="#ffd77c" stroke="#ffab50" stroke-miterlimit="10" stroke-width="0.25"/>
    </g>
  </g>
</svg>
