<?xml version="1.0" encoding="iso-8859-1"?>
<!-- Generator: Adobe Illustrator 19.0.0, SVG Export Plug-In . SVG Version: 6.00 Build 0)  -->
<svg version="1.1" id="Capa_1" xmlns="http://www.w3.org/2000/svg" xmlns:xlink="http://www.w3.org/1999/xlink" x="0px" y="0px"
	 viewBox="0 0 512.002 512.002" style="enable-background:new 0 0 512.002 512.002;" xml:space="preserve">
<g>
	<path style="fill:#FF8346;" d="M256.001,10c65.951,0,119.436,57.342,119.436,128.052c0,80.658-67.463,114.954-67.463,212.819
		H204.029c0-97.865-67.464-132.161-67.464-212.819C136.564,67.342,190.049,10,256.001,10z"/>
	<path style="fill:#FFD07D;" d="M283.592,350.871v84.934c0.355-0.012,0.71-0.018,1.067-0.018l0,0
		c18.209,0,33.107,14.897,33.107,33.107l0,0c0,18.21-14.898,33.108-33.107,33.108l0,0c-12.201,0-22.916-6.69-28.659-16.584
		c-5.742,9.894-16.456,16.584-28.658,16.584l0,0c-18.21,0-33.108-14.898-33.108-33.108l0,0c0-18.21,14.898-33.107,33.108-33.107l0,0
		c0.357,0,0.713,0.007,1.068,0.018v-84.934L283.592,350.871L283.592,350.871z"/>
</g>
<path d="M256.001,0c-71.372,0-129.437,61.93-129.437,138.052c0,40.941,16.532,71.117,32.519,100.299
	c17.18,31.358,34.944,63.784,34.944,112.52c0,5.523,4.477,10,10,10h14.382v65.846c-19.499,4.124-34.176,21.468-34.176,42.177
	c0,23.77,19.338,43.108,43.108,43.108c10.67,0,20.854-4.022,28.659-10.973c7.805,6.95,17.988,10.973,28.658,10.973
	c23.77,0,43.107-19.338,43.107-43.108c0-20.708-14.676-38.053-34.175-42.177v-65.846h14.383c5.522,0,10-4.477,10-10
	c0-8.889,0.598-17.661,1.777-26.073c0.767-5.469-3.046-10.524-8.515-11.292c-5.474-0.766-10.524,3.045-11.292,8.515
	c-0.861,6.145-1.443,12.453-1.74,18.849l0,0h-84.41l0,0c-2.269-48.422-20.746-82.149-37.172-112.13
	c-15.458-28.217-30.06-54.868-30.06-90.689C146.564,72.958,195.659,20,256.001,20c60.344,0,109.436,52.958,109.436,118.052
	c0,35.822-14.602,62.474-30.06,90.69c-4.33,7.903-8.807,16.075-13.044,24.583c-2.462,4.943-0.45,10.947,4.493,13.409
	c4.941,2.461,10.946,0.449,13.409-4.494c4.063-8.158,8.444-16.156,12.682-23.89c15.987-29.183,32.52-59.359,32.52-100.3
	C385.438,61.93,327.372,0,256.001,0z M273.592,360.871v74.934c0,2.71,1.1,5.303,3.047,7.187c1.947,1.883,4.526,2.892,7.284,2.808
	c0.244-0.008,0.489-0.013,0.736-0.013c12.741,0,23.107,10.366,23.107,23.107c0,12.742-10.366,23.108-23.107,23.108
	c-8.189,0-15.855-4.446-20.01-11.604c-0.008-0.014-0.018-0.025-0.026-0.039c-1.942-3.435-3-7.326-3-11.33l0.005-0.474
	c0.109-5.522-4.279-10.086-9.801-10.195c-5.542-0.126-10.087,4.279-10.195,9.801c-0.006,0.288-0.009,0.579-0.009,0.868
	c0,5.288,0.972,10.477,2.822,15.331c-4.351,4.795-10.557,7.642-17.102,7.642c-12.742,0-23.108-10.366-23.108-23.108
	s10.366-23.107,23.108-23.107c0.247,0,0.493,0.005,0.738,0.013c2.703,0.089,5.336-0.924,7.284-2.808
	c1.947-1.884,3.046-4.478,3.046-7.187v-74.934H273.592z"/>
<path d="M323.546,273.987c-5.175-1.923-10.934,0.714-12.855,5.892l-0.104,0.277c-1.939,5.171,0.681,10.935,5.852,12.875
	c1.157,0.434,2.344,0.64,3.51,0.64c4.049,0,7.86-2.477,9.365-6.492l0.125-0.336C331.362,281.666,328.724,275.91,323.546,273.987z"/>
<path d="M223.456,77.854c4.778-2.77,6.407-8.888,3.638-13.667c-2.77-4.778-8.888-6.407-13.667-3.638
	c-26.113,15.133-42.334,43.282-42.334,73.463c0,7.829,1.082,15.616,3.216,23.146c1.248,4.402,5.255,7.276,9.616,7.276
	c0.902,0,1.821-0.123,2.732-0.381c5.313-1.506,8.4-7.034,6.895-12.348c-1.631-5.756-2.458-11.708-2.458-17.693
	C191.094,110.94,203.495,89.421,223.456,77.854z"/>
<path d="M191.355,173.178c-4.299,3.467-4.973,9.763-1.506,14.062c0.226,0.281,0.454,0.56,0.684,0.84
	c1.978,2.402,4.84,3.645,7.727,3.645c2.236,0,4.487-0.747,6.349-2.279c4.264-3.51,4.876-9.812,1.366-14.076l-0.559-0.686
	C201.951,170.385,195.655,169.71,191.355,173.178z"/>
<g>
</g>
<g>
</g>
<g>
</g>
<g>
</g>
<g>
</g>
<g>
</g>
<g>
</g>
<g>
</g>
<g>
</g>
<g>
</g>
<g>
</g>
<g>
</g>
<g>
</g>
<g>
</g>
<g>
</g>
</svg>
