<svg id="Capa_1" enable-background="new 0 0 512 512" height="512" viewBox="0 0 512 512" width="512" xmlns="http://www.w3.org/2000/svg"><g><g><g><g><path d="m483.903 225.917c8.658-18.81-5.215-40.359-25.922-40.265 3.039-20.495-16.334-37.296-36.194-31.386-2.865-20.49-26.155-31.143-43.528-19.905-8.548-18.864-33.924-22.487-47.412-6.771-13.487-15.715-38.863-12.094-47.412 6.771-17.372-11.236-40.663-.586-43.528 19.904-19.859-5.91-39.233 10.89-36.194 31.386-20.706-.094-34.581 21.455-25.923 40.266-19.864 5.77-27.068 30.34-13.464 45.923l16.521 23.177h300l16.521-23.177c13.602-15.582 6.4-40.152-13.465-45.923z" fill="#df941e"/></g><g><path d="m330.846 146.269c-82.843 0-150 67.157-150 150h300c0-82.842-67.157-150-150-150z" fill="#e8ab4c"/></g><g><path d="m220.205 271.919c0-45.595 20.348-86.433 52.452-113.943-53.942 22.725-91.812 76.085-91.812 138.293h300c0-8.292-.684-16.424-1.978-24.35z" fill="#df941e"/></g><g><path d="m334.904 325.184c8.658-18.81-5.215-40.359-25.922-40.265 3.039-20.495-16.334-37.296-36.194-31.386-2.865-20.49-26.155-31.143-43.528-19.905-8.548-18.864-33.924-22.487-47.412-6.771-13.487-15.715-38.863-12.094-47.412 6.771-17.372-11.236-40.663-.586-43.528 19.904-19.859-5.91-39.233 10.89-36.194 31.386-20.706-.094-34.581 21.455-25.923 40.266-19.864 5.77-27.068 30.34-13.464 45.923l16.521 23.177h300l16.521-23.177c13.601-15.582 6.399-40.153-13.465-45.923z" fill="#df941e"/></g><g><path d="m181.847 244.283c-82.843 0-150 67.157-150 150h300c0-82.843-67.157-150-150-150z" fill="#e8ab4c"/></g><g><path d="m54.952 372.179c0-36.863 13.305-70.613 35.365-96.729-35.558 27.429-58.47 70.452-58.47 118.833h300c0-7.511-.559-14.89-1.625-22.104z" fill="#df941e"/></g><g><g><g><path d="m106.267 309.987-9.963-11.213c4.171-3.706 8.373-7.023 12.49-9.859l8.511 12.352c-3.613 2.487-7.326 5.422-11.038 8.72z" fill="#fff"/></g><g><path d="m129.382 293.944-7.035-13.248c4.374-2.322 9.263-4.516 14.531-6.518l5.329 14.021c-4.686 1.782-9.001 3.715-12.825 5.745z" fill="#fff"/></g></g></g><g><g><g><path d="m255.419 211.973-9.963-11.213c4.171-3.706 8.373-7.023 12.49-9.859l8.51 12.352c-3.611 2.488-7.324 5.422-11.037 8.72z" fill="#fff"/></g><g><path d="m278.535 195.93-7.035-13.248c4.373-2.322 9.262-4.516 14.531-6.518l5.328 14.021c-4.686 1.782-9.001 3.715-12.824 5.745z" fill="#fff"/></g></g></g></g></g><g><path d="m255.451 386.393h15.032v15.032h-15.032z"/><path d="m510.526 243.651c-2.73-9.316-8.954-16.948-17.228-21.459 4.57-18.543-8.774-39.284-27.543-42.81-.823-19.09-19.465-35.251-38.477-33.357-6.17-18.061-28.577-28.305-46.274-21.151-11.023-15.599-35.438-19.092-50.396-7.215-14.957-11.874-39.373-8.386-50.395 7.215-17.693-7.152-40.105 3.09-46.273 21.15-19.014-1.891-37.653 14.265-38.477 33.354-14.296 2.792-26.222 15.785-28.024 30.203-13.445-3.175-28.673 2.421-36.696 13.514-17.693-7.152-40.105 3.09-46.273 21.15-19.012-1.886-37.656 14.264-38.477 33.357-18.77 3.529-32.114 24.267-27.543 42.81-8.275 4.51-14.498 12.142-17.228 21.457-6.364 18.971 13.767 42.925 22.082 59.556h217.113v-15.032h-201.884c12.896-178.495 272.374-178.371 285.214 0h-38.232v15.032h53.46l14.957-26.096c7.499-12.806 10.565-21.724 7.125-33.457-2.73-9.316-8.953-16.948-17.228-21.459 4.57-18.544-8.774-39.284-27.544-42.81-.821-19.093-19.465-35.243-38.476-33.357-6.169-18.06-28.58-28.306-46.274-21.151-4.071-5.45-9.604-9.6-15.978-12.012 76.993-107.596 252.352-54.683 257.658 77.088h-118.2l6.016 15.032h127.412l14.957-26.095c7.901-12.452 10.566-21.724 7.126-33.457zm-128.322-102.649c12.149-8.409 30.508-.015 32.095 14.677 0 0 .957 6.847.957 6.847-11.921-7.604-24.927-13.649-38.728-17.853zm-27.042-15.258c10.477 1.434 15.394 9.086 18.898 18.193-13.395-3.841-27.514-5.944-42.098-6.068 5.841-7.715 12.855-13.705 23.2-12.125zm-49.104 0c10.356-1.581 17.357 4.416 23.202 12.13-14.446.122-28.58 2.184-42.086 6.031 3.495-9.099 8.433-16.734 18.884-18.161zm-47.097 13.832c9.501-4.453 17.903-.664 25.701 5.078-13.675 4.143-26.68 10.112-38.681 17.74.789-9.732 3.331-18.479 12.98-22.818zm-72.202 61.898c5.801-7.63 14.571-8.332 23.423-7.837-4.081 4.824-7.894 9.93-11.427 15.29-5.991.649-11.695 2.796-16.623 6.245-.145-4.879 1.453-9.71 4.627-13.698zm-30.17 22.491c10.357-1.583 17.355 4.414 23.199 12.127-14.584.123-28.704 2.226-42.099 6.068 3.502-9.109 8.43-16.765 18.9-18.195zm-47.097 13.833c9.517-4.46 17.923-.65 25.731 5.098-13.801 4.205-26.808 10.249-38.729 17.853.827-9.83 3.242-18.531 12.998-22.951zm-89.564 127.941c-9.478-12.182-4.787-29.599 9.927-33.86-.001 0 7.058-2.05 7.058-2.05-5.952 13.344-10.101 27.66-12.145 42.638zm17.728-37.55c-4.642-8.803-7.573-17.643-1.624-26.737 5.821-9.128 14.904-10.169 24.808-9.593-9.29 10.935-17.12 23.145-23.184 36.33zm24.56-37.936c-1.991-9.687-2.203-18.917 5.976-25.913 7.935-7.022 17.15-5.636 26.32-2.299-12.005 7.913-22.873 17.415-32.296 28.212zm284.417 55.848c2.025 12.488-9.121 26.366-9.121 26.366-2.044-14.978-6.193-29.293-12.145-42.637 9.051 2.144 19.635 5.957 21.266 16.271zm-37.958-54.273c14.74-.46 25.604 16.493 19.019 29.693 0 0-3.069 6.67-3.069 6.67-6.064-13.186-13.894-25.396-23.184-36.331 0 0 7.202-.032 7.234-.032zm-34.257-31.765c14.049-4.665 29.32 8.581 26.692 23.146 0 0-1.044 7.045-1.044 7.045-9.423-10.798-20.292-20.299-32.297-28.213zm-41.683-20.84c12.155-8.409 30.506-.014 32.095 14.677 0 0 .957 6.848.957 6.848-11.921-7.604-24.928-13.649-38.729-17.853zm-10.928-3.209 2.785 6.145c-13.395-3.841-27.515-5.944-42.1-6.068l4.352-5.07c9.275-11.525 29.282-8.665 34.963 4.993zm-10.138-44.086c-1.991-9.653-2.146-18.846 5.992-25.809 7.883-6.97 17.061-5.669 26.185-2.339-11.856 7.807-22.688 17.251-32.177 28.148zm205.57-28.108c9.18-3.336 18.377-4.723 26.32 2.299 8.176 6.99 7.968 16.238 5.975 25.913-9.422-10.797-20.29-20.299-32.295-28.212zm33.672 29.818c9.867-.591 19.041.499 24.807 9.594 5.948 9.086 3.015 17.947-1.624 26.737-6.063-13.186-13.893-25.396-23.183-36.331zm40.911 73.88-4.841 6.728c-2.043-14.978-6.192-29.293-12.144-42.637l7.057 2.05c14.307 3.675 19.677 19.744 9.928 33.859z"/></g></g></svg>