<svg xmlns="http://www.w3.org/2000/svg" xmlns:xlink="http://www.w3.org/1999/xlink" width="3389.124" height="3363.469" viewBox="0 0 3389.124 3363.469">
  <defs>
    <filter id="Path_52" x="39.783" y="1019.631" width="3193.867" height="2049.02" filterUnits="userSpaceOnUse">
      <feOffset dx="22" dy="42" input="SourceAlpha"/>
      <feGaussianBlur stdDeviation="33" result="blur"/>
      <feFlood flood-color="#7e7e7e" flood-opacity="0.412"/>
      <feComposite operator="in" in2="blur"/>
      <feComposite in="SourceGraphic"/>
    </filter>
    <filter id="Path_48" x="145.863" y="900.883" width="3243.261" height="2462.587" filterUnits="userSpaceOnUse">
      <feOffset dx="44" dy="33" input="SourceAlpha"/>
      <feGaussianBlur stdDeviation="31" result="blur-2"/>
      <feFlood flood-color="#539823" flood-opacity="0.949"/>
      <feComposite operator="in" in2="blur-2"/>
      <feComposite in="SourceGraphic"/>
    </filter>
    <filter id="Path_50" x="77.852" y="342.791" width="3245.858" height="2902.797" filterUnits="userSpaceOnUse">
      <feOffset dx="42" dy="42" input="SourceAlpha"/>
      <feGaussianBlur stdDeviation="33.5" result="blur-3"/>
      <feFlood flood-color="#6eb53f"/>
      <feComposite operator="in" in2="blur-3"/>
      <feComposite in="SourceGraphic"/>
    </filter>
    <filter id="Path_51" x="0" y="0" width="3388.42" height="3182.971" filterUnits="userSpaceOnUse">
      <feOffset dx="25" dy="42" input="SourceAlpha"/>
      <feGaussianBlur stdDeviation="32.5" result="blur-4"/>
      <feFlood flood-color="#7e7e7e" flood-opacity="0.522"/>
      <feComposite operator="in" in2="blur-4"/>
      <feComposite in="SourceGraphic"/>
    </filter>
  </defs>
  <g id="Group_23" data-name="Group 23" transform="translate(724.674 -3632.44)">
    <g transform="matrix(1, 0, 0, 1, -724.67, 3632.44)" filter="url(#Path_52)">
      <path id="Path_52-2" data-name="Path 52" d="M3788.113,1848.829c139.987,203.321,155.692,342.753,77,447.67-179.113,238.812-813.561-428.522-956.189-494.292-267.594-123.4-87-490.641-100.5-983.673-6.072-221.863-149.577-599.584,9.167-905.066S3323.494-506.44,3443.4-403.4s-78.27,201.775-51.89,289.923,166.593,130.439,206.876,288.49-83.72,202.032-15.277,426.566,212.852,146.986,276.327,484.3S3648.126,1645.509,3788.113,1848.829Z" transform="matrix(-0.26, 0.97, -0.97, -0.26, 3397.26, -965.36)" fill="#64c125"/>
    </g>
    <g transform="matrix(1, 0, 0, 1, -724.67, 3632.44)" filter="url(#Path_48)">
      <path id="Path_48-2" data-name="Path 48" d="M3888.015,1021.119c42.907,280.918-321.228,487.422-158.994,666.245s691.6,279.116,612.907,384.033c-179.114,238.814-1290.374-203.42-1433-269.191-267.594-123.4-87-490.641-100.5-983.673-6.072-221.863-191.957-556.524,9.167-905.066s640.546-555.617,795.326-489.1c141.552,60.829-255.565,228.69-211.044,398.7S3491.1-8.379,3601.712,127.805s-20.007,214.868-15.049,384.888S3845.108,740.2,3888.015,1021.119Z" transform="matrix(-0.26, 0.97, -0.97, -0.26, 3389.26, -1116.36)" fill="#8fef4f"/>
    </g>
    <g transform="matrix(1, 0, 0, 1, -724.67, 3632.44)" filter="url(#Path_50)">
      <path id="Path_50-2" data-name="Path 50" d="M4009.713,235.8c230.537,106.9,106.781,517.088,315.857,616.69s256.779-170.346,450.271-4.235S4700.779,1252.2,4341.4,1359.01s-487.35,194.08-1003.088-83.526S2040.675,901.235,2405.533,45.2c0,0,95.03-310.049,281.171-327.471,57.811-5.411,44.092,168.5,196.973,219.7s228.74-74.412,383.264-15.62,122.279,162.64,272.373,242.348S3779.176,128.9,4009.713,235.8Z" transform="matrix(-0.89, 0.45, -0.45, -0.89, 5112.77, 653.91)" fill="#fff"/>
    </g>
    <g transform="matrix(1, 0, 0, 1, -724.67, 3632.44)" filter="url(#Path_51)">
      <path id="Path_51-2" data-name="Path 51" d="M4861.377,279.421c173.483,152.41,62.6,497.719,380.078,641.879s418.152,171.061,333.952,391.6-352.456,437.03-952.712,374.273S3535.324,1081.333,3225.846,568.388s-102.567-915.692,158.937-933c81.216-5.374,81.249,282.687,235.835,339.294s230.259-89.5,405.854-86.2S4216.438,66.527,4397.3,151.3,4687.894,127.011,4861.377,279.421Z" transform="matrix(-0.89, 0.45, -0.45, -0.89, 5836.48, 174.46)" fill="#fff"/>
    </g>
    <rect id="Rectangle_10" data-name="Rectangle 10" width="1920" height="1477" transform="translate(0 3798)" fill="#fff"/>
  </g>
</svg>
