<svg xmlns="http://www.w3.org/2000/svg" width="1526" height="451.865" viewBox="0 0 1526 451.865">
  <g id="Group_52" data-name="Group 52" transform="translate(-226 -3179)">
    <text id="_75_Bootham_Crescent" data-name="75  Bootham Crescent" transform="translate(680 3416)" fill="#5e5e5e" font-size="27" font-family="SegoeUI-Semilight, Segoe UI" font-weight="300" letter-spacing="0.076em"><tspan x="124.171" y="29" xml:space="preserve">75  Bootham Crescent</tspan></text>
    <text id="_202-555-0186" data-name="202-555-0186" transform="translate(1197 3416)" fill="#5e5e5e" font-size="27" font-family="SegoeUI-Semilight, Segoe UI" font-weight="300" letter-spacing="0.076em"><tspan x="180.368" y="29">202-555-0186</tspan></text>
    <text id="_1-202-555-0190" data-name="+1-202-555-0190" transform="translate(1209 3470)" fill="#5e5e5e" font-size="27" font-family="SegoeUI-Semilight, Segoe UI" font-weight="300" letter-spacing="0.076em"><tspan x="157.837" y="29">+1-202-555-0190</tspan></text>
    <text id="eagles_gmail.com" data-name="eagles@gmail.com" transform="translate(1366 3554)" fill="#5e5e5e" font-size="27" font-family="SegoeUI-Semilight, Segoe UI" font-weight="300" letter-spacing="0.076em"><tspan x="10.33" y="29">eagles@gmail.com</tspan></text>
    <text id="RINGSHALL_" data-name="RINGSHALL
" transform="translate(611 3477)" fill="#5e5e5e" font-size="27" font-family="SegoeUI-Semilight, Segoe UI" font-weight="300" letter-spacing="0.076em"><tspan x="195.772" y="29">RINGSHALL</tspan></text>
    <text id="IP14_4NW" data-name="IP14 4NW" transform="translate(600 3534)" fill="#5e5e5e" font-size="27" font-family="SegoeUI-Semilight, Segoe UI" font-weight="300" letter-spacing="0.076em"><tspan x="207.774" y="29">IP14 4NW</tspan></text>
    <text id="Where_to_find_us" data-name="Where to find us" transform="translate(683 3230)" fill="#a5a5a5" font-size="47" font-family="SegoeUI-Bold, Segoe UI" font-weight="700" letter-spacing="0.168em"><tspan x="0" y="0">WHERE TO FIND US</tspan></text>
    <g id="undraw_directions_x53j_1_" data-name="undraw_directions_x53j (1)" transform="translate(226 3323.5)">
      <path id="Path_67" data-name="Path 67" d="M322.609,138.947a103.86,103.86,0,0,0-124.8-14.053C237.809,139.213,281.944,139.739,322.609,138.947Z" transform="translate(-146.933 -99.656)" fill="#6bdb20" opacity="0.1"/>
      <path id="Path_68" data-name="Path 68" d="M920.97,625.594l-43.68-75.657a1.39,1.39,0,0,0-2.413,0L831.2,625.594a1.39,1.39,0,0,0,1.2,2.106h13.03a1.4,1.4,0,0,1,1.394,1.394V645.24a1.394,1.394,0,0,0,1.39,1.394h17a1.394,1.394,0,0,0,1.394-1.394v-7.8a1.39,1.39,0,0,1,1.39-1.39h16.163a1.394,1.394,0,0,1,1.394,1.39v7.8a1.394,1.394,0,0,0,1.394,1.394h17a1.394,1.394,0,0,0,1.394-1.394V629.077a1.394,1.394,0,0,1,1.394-1.394h13.03a1.394,1.394,0,0,0,1.2-2.089Zm-60.913,8.372a1.39,1.39,0,0,1-.985.421h-6.119a1.394,1.394,0,0,1,0-2.788h6.132a1.394,1.394,0,0,1,.986,2.379Zm40.126,0a1.39,1.39,0,0,1-.985.421h-6.115a1.394,1.394,0,0,1,0-2.788h6.14a1.394,1.394,0,0,1,.986,2.379Z" transform="translate(-513.465 -353.761)" fill="#6bdb20" opacity="0.1"/>
      <path id="Path_69" data-name="Path 69" d="M288.332,627.18l-43.68-75.657a1.394,1.394,0,0,0-2.413,0L204.51,616.871a115.25,115.25,0,0,0,15.788,16.3h6.149a1.394,1.394,0,1,1,0,2.788h-2.594a67.489,67.489,0,0,0,10.107,6.287v-3.222a1.394,1.394,0,0,1,1.394-1.394h16.163a1.394,1.394,0,0,1,1.39,1.394v7.8a1.356,1.356,0,0,0,.131.585,1.394,1.394,0,0,0,1.263.809h17a1.365,1.365,0,0,0,1.108-.56,1.339,1.339,0,0,0,.282-.842V630.667a1.394,1.394,0,0,1,1.394-1.394h13.03a1.394,1.394,0,0,0,1.217-2.093Zm-28.869,6.4a1.39,1.39,0,0,1,.985-.421h6.132a1.394,1.394,0,1,1,0,2.788h-6.136a1.394,1.394,0,0,1-.986-2.379Zm-27.437-28a1.394,1.394,0,0,1-1.394-1.394V593.6a1.394,1.394,0,0,1,1.394-1.394h22.846a1.394,1.394,0,0,1,1.39,1.394V604.19a1.394,1.394,0,0,1-1.39,1.394Z" transform="translate(-150.811 -354.682)" fill="#6bdb20" opacity="0.1"/>
      <path id="Path_70" data-name="Path 70" d="M579.511,369.96H525.459V358.27a2.8,2.8,0,0,0-2.8-2.8H506.79V343.02a1.76,1.76,0,0,0-1.76-1.76H484.584a1.76,1.76,0,0,0-1.76,1.76v12.449h-18.66a2.8,2.8,0,0,0-2.8,2.8v11.691H409.824a.568.568,0,0,0-.564.568v155.2a.568.568,0,0,0,.564.568h34.255a.568.568,0,0,0,.569-.568v-20.88a.573.573,0,0,1,.568-.568h14.47a.573.573,0,0,1,.568.568v20.88a.568.568,0,0,0,.564.568h67.7a.573.573,0,0,0,.569-.568v-20.88a.568.568,0,0,1,.564-.568h14.47a.569.569,0,0,1,.568.568v20.88a.573.573,0,0,0,.569.568h34.255a.573.573,0,0,0,.569-.568v-155.2a.573.573,0,0,0-.569-.568Zm-141,127.064a.564.564,0,0,1-.564.564H416.794a.564.564,0,0,1-.568-.564v-7.214a.568.568,0,0,1,.568-.568h21.158a.569.569,0,0,1,.564.569Zm0-18.673a.564.564,0,0,1-.564.568H416.794a.564.564,0,0,1-.568-.568v-7.222a.564.564,0,0,1,.568-.569h21.158a.564.564,0,0,1,.564.569Zm0-18.669a.568.568,0,0,1-.564.568H416.794a.569.569,0,0,1-.568-.569v-7.227a.569.569,0,0,1,.568-.569h21.158a.569.569,0,0,1,.564.569Zm0-18.673a.564.564,0,0,1-.564.569H416.794a.564.564,0,0,1-.568-.569V433.8a.564.564,0,0,1,.568-.569h21.158a.564.564,0,0,1,.564.569Zm0-18.669a.568.568,0,0,1-.564.568H416.794a.568.568,0,0,1-.568-.568v-7.227a.564.564,0,0,1,.568-.564h21.158a.564.564,0,0,1,.564.564Zm0-18.669a.564.564,0,0,1-.564.564H416.794a.564.564,0,0,1-.568-.564v-7.227a.568.568,0,0,1,.568-.569h21.158a.569.569,0,0,1,.564.569Zm0-18.673a.564.564,0,0,1-.564.569H416.794a.564.564,0,0,1-.568-.569v-7.21a.564.564,0,0,1,.568-.569h21.158a.564.564,0,0,1,.564.569ZM488.677,497.02a.564.564,0,0,1-.568.564H466.951a.569.569,0,0,1-.568-.564v-7.21a.573.573,0,0,1,.568-.569h21.158a.569.569,0,0,1,.568.569Zm0-18.673a.564.564,0,0,1-.568.568H466.951a.569.569,0,0,1-.568-.568v-7.218a.569.569,0,0,1,.568-.569h21.158a.564.564,0,0,1,.568.569Zm0-18.669a.568.568,0,0,1-.568.569H466.951a.573.573,0,0,1-.568-.569v-7.222a.573.573,0,0,1,.568-.569h21.158a.569.569,0,0,1,.568.569Zm0-18.673a.564.564,0,0,1-.568.568H466.951a.568.568,0,0,1-.568-.568V433.8a.569.569,0,0,1,.568-.569h21.158a.564.564,0,0,1,.568.569Zm0-18.669a.568.568,0,0,1-.568.569H466.951a.573.573,0,0,1-.568-.569v-7.222a.569.569,0,0,1,.568-.564h21.158a.564.564,0,0,1,.568.564Zm0-18.669a.564.564,0,0,1-.568.564H466.951a.568.568,0,0,1-.568-.564v-7.222a.573.573,0,0,1,.568-.569h21.158a.568.568,0,0,1,.568.569Zm0-18.673a.564.564,0,0,1-.568.568H466.951a.568.568,0,0,1-.568-.568v-7.206a.568.568,0,0,1,.568-.569h21.158a.564.564,0,0,1,.568.569Zm34.276,112.021a.564.564,0,0,1-.568.564H501.227a.568.568,0,0,1-.569-.564v-7.205a.573.573,0,0,1,.569-.569h21.158a.569.569,0,0,1,.569.569Zm0-18.673a.564.564,0,0,1-.568.569H501.227a.569.569,0,0,1-.569-.569v-7.214a.569.569,0,0,1,.569-.569h21.158a.564.564,0,0,1,.569.569Zm0-18.669a.568.568,0,0,1-.568.569H501.227a.573.573,0,0,1-.569-.569v-7.218a.573.573,0,0,1,.569-.569h21.158a.569.569,0,0,1,.569.569Zm0-18.673a.564.564,0,0,1-.568.568H501.227a.569.569,0,0,1-.569-.568v-7.2a.569.569,0,0,1,.569-.569h21.158a.564.564,0,0,1,.569.569Zm0-18.669a.568.568,0,0,1-.568.568H501.227a.573.573,0,0,1-.569-.569v-7.218a.569.569,0,0,1,.569-.564h21.158a.564.564,0,0,1,.569.564Zm0-18.669a.564.564,0,0,1-.568.564H501.227a.569.569,0,0,1-.569-.564v-7.218a.573.573,0,0,1,.569-.569h21.158a.569.569,0,0,1,.569.569Zm0-18.673a.564.564,0,0,1-.568.568H501.227a.569.569,0,0,1-.569-.568v-7.2a.569.569,0,0,1,.569-.569h21.158a.564.564,0,0,1,.569.569Zm50.161,112.021a.569.569,0,0,1-.569.564H551.388a.565.565,0,0,1-.569-.564v-7.2a.569.569,0,0,1,.569-.568H572.55a.573.573,0,0,1,.568.569Zm0-18.673a.569.569,0,0,1-.569.569H551.388a.564.564,0,0,1-.569-.569v-7.21a.564.564,0,0,1,.569-.569H572.55a.568.568,0,0,1,.568.569Zm0-18.669a.573.573,0,0,1-.569.569H551.388a.569.569,0,0,1-.569-.569v-7.214a.569.569,0,0,1,.569-.569H572.55a.573.573,0,0,1,.568.569Zm0-18.673a.569.569,0,0,1-.569.568H551.388a.564.564,0,0,1-.569-.568v-7.2a.564.564,0,0,1,.569-.569H572.55a.569.569,0,0,1,.568.569Zm0-18.669a.573.573,0,0,1-.569.568H551.388a.569.569,0,0,1-.569-.568v-7.214a.565.565,0,0,1,.569-.564H572.55a.569.569,0,0,1,.568.564Zm0-18.669a.569.569,0,0,1-.564.577H551.388a.565.565,0,0,1-.569-.564v-7.227a.569.569,0,0,1,.569-.569H572.55a.573.573,0,0,1,.568.569Zm0-18.673a.569.569,0,0,1-.569.568H551.388a.564.564,0,0,1-.569-.568v-7.2a.564.564,0,0,1,.569-.569H572.55a.568.568,0,0,1,.568.569Z" transform="translate(-269.334 -233.37)" fill="#6bdb20" opacity="0.1"/>
      <path id="Path_71" data-name="Path 71" d="M397.783,287.209a12.166,12.166,0,0,0-7.062.766,10.406,10.406,0,0,1-8.52-.021,11.885,11.885,0,0,0-9.972.2,6.211,6.211,0,0,1-2.872.716c-4.043,0-7.408-4.072-8.107-9.446a7.753,7.753,0,0,0,2.021-2.177c2.371-3.82,6.043-6.275,10.166-6.275s7.749,2.426,10.107,6.2a7.8,7.8,0,0,0,6.717,3.689h.105C393.618,280.862,396.406,283.444,397.783,287.209Z" transform="translate(-241.543 -192.681)" fill="#6bdb20" opacity="0.1"/>
      <path id="Path_72" data-name="Path 72" d="M410.075,249.717l-6.536,4.144,3.967-7.214a6.46,6.46,0,0,0-3.954-1.411h-.105a7.647,7.647,0,0,1-1.356-.1l-2.207,1.407.952-1.727a7.875,7.875,0,0,1-3.874-2.948l-3.967,2.527,2.5-4.565a11.606,11.606,0,0,0-8.882-4.489c-4.123,0-7.8,2.451-10.166,6.271a7.6,7.6,0,0,1-6.738,3.626h-.223c-4.552,0-8.242,5.159-8.242,11.526s3.689,11.526,8.242,11.526a6.152,6.152,0,0,0,2.872-.72,11.884,11.884,0,0,1,9.973-.194,10.406,10.406,0,0,0,8.482,0,11.88,11.88,0,0,1,9.888.19,6.168,6.168,0,0,0,2.838.7c4.552,0,8.242-5.163,8.242-11.526A14.637,14.637,0,0,0,410.075,249.717Z" transform="translate(-241.537 -172.056)" fill="#6bdb20" opacity="0.1"/>
      <path id="Path_73" data-name="Path 73" d="M873.886,476.394a8.554,8.554,0,0,0-4.944.535,7.273,7.273,0,0,1-5.938,0,8.321,8.321,0,0,0-6.982.139,4.33,4.33,0,0,1-2.009.5c-2.83,0-5.184-2.851-5.673-6.612a5.5,5.5,0,0,0,1.415-1.524,7.956,7.956,0,0,1,14.2-.051,5.449,5.449,0,0,0,4.7,2.581h.076C870.963,471.955,872.913,473.762,873.886,476.394Z" transform="translate(-523.503 -305.022)" fill="#6bdb20" opacity="0.1"/>
      <path id="Path_74" data-name="Path 74" d="M882.462,450.153l-4.573,2.9L880.664,448a4.523,4.523,0,0,0-2.767-.985h-.072a5.421,5.421,0,0,1-.948-.072l-1.554.981.665-1.2a5.556,5.556,0,0,1-2.712-2.059l-2.784,1.752,1.752-3.188a8.085,8.085,0,0,0-6.216-3.146,8.5,8.5,0,0,0-7.117,4.392,5.315,5.315,0,0,1-4.7,2.527h-.139c-3.184,0-5.77,3.609-5.77,8.065s2.586,8.069,5.77,8.069a4.329,4.329,0,0,0,2.009-.5,8.3,8.3,0,0,1,6.982-.135,7.315,7.315,0,0,0,5.938,0,8.318,8.318,0,0,1,6.919.135,4.358,4.358,0,0,0,1.988.489c3.188,0,5.77-3.609,5.77-8.069A10.255,10.255,0,0,0,882.462,450.153Z" transform="translate(-523.48 -290.573)" fill="#6bdb20" opacity="0.1"/>
      <path id="Path_75" data-name="Path 75" d="M315.62,412.371a8.558,8.558,0,0,1,4.944.535,7.26,7.26,0,0,0,5.934,0,8.321,8.321,0,0,1,6.982.139,4.341,4.341,0,0,0,2.009.5c2.83,0,5.188-2.851,5.677-6.612a5.445,5.445,0,0,1-1.415-1.524,7.956,7.956,0,0,0-14.209-.067,5.475,5.475,0,0,1-4.708,2.59h-.072C318.522,407.932,316.568,409.738,315.62,412.371Z" transform="translate(-215.129 -267.951)" fill="#6bdb20" opacity="0.1"/>
      <path id="Path_76" data-name="Path 76" d="M293.478,386.148l4.573,2.889-2.779-5.054a4.532,4.532,0,0,1,2.767-.986h.076a5.474,5.474,0,0,0,.948-.072l1.55.981-.665-1.2a5.563,5.563,0,0,0,2.716-2.059l2.775,1.76-1.756-3.188a8.126,8.126,0,0,1,6.22-3.146,8.505,8.505,0,0,1,7.117,4.392,5.311,5.311,0,0,0,4.7,2.527h.152c3.188,0,5.77,3.609,5.77,8.065s-2.582,8.069-5.77,8.069a4.354,4.354,0,0,1-2.009-.5,8.305,8.305,0,0,0-6.982-.135,7.306,7.306,0,0,1-5.934,0,8.326,8.326,0,0,0-6.923.135,4.347,4.347,0,0,1-1.988.489c-3.184,0-5.77-3.609-5.77-8.069A10.255,10.255,0,0,1,293.478,386.148Z" transform="translate(-201.612 -253.52)" fill="#6bdb20" opacity="0.1"/>
      <path id="Path_77" data-name="Path 77" d="M295.68,784.789c5.7,3.622,13.918-.042,19.658,3.525,1.482.918,2.678,2.27,4.211,3.1a13.61,13.61,0,0,0,6.1,1.263c17.528.678,35.35-4.211,52.44-.261,4.78,1.1,9.454,2.9,14.352,3.158,8.461.459,16.567-3.668,25.036-3.9,12.845-.345,25.466,8.25,37.86,4.86,4.077-1.116,7.816-3.5,12.023-3.9,4.687-.421,9.193,1.621,13.75,2.813,16.159,4.211,32.987-2.611,49.694-3.121,10.895-.333,21.684,2.042,32.57,2.59a194.5,194.5,0,0,0,23.23-.695c2.948-.206,6.035-.459,8.5-2.076s3.984-5.091,2.459-7.618Z" transform="translate(-203.587 -489.97)" fill="#3f3d56"/>
      <path id="Path_78" data-name="Path 78" d="M295.68,784.789c5.7,3.622,13.918-.042,19.658,3.525,1.482.918,2.678,2.27,4.211,3.1a13.61,13.61,0,0,0,6.1,1.263c17.528.678,35.35-4.211,52.44-.261,4.78,1.1,9.454,2.9,14.352,3.158,8.461.459,16.567-3.668,25.036-3.9,12.845-.345,25.466,8.25,37.86,4.86,4.077-1.116,7.816-3.5,12.023-3.9,4.687-.421,9.193,1.621,13.75,2.813,16.159,4.211,32.987-2.611,49.694-3.121,10.895-.333,21.684,2.042,32.57,2.59a194.5,194.5,0,0,0,23.23-.695c2.948-.206,6.035-.459,8.5-2.076s3.984-5.091,2.459-7.618Z" transform="translate(-203.587 -489.97)" opacity="0.1"/>
      <path id="Path_79" data-name="Path 79" d="M295.68,779.789c5.7,3.622,13.918-.042,19.658,3.525,1.482.918,2.678,2.27,4.211,3.1a13.61,13.61,0,0,0,6.1,1.263c17.528.678,35.35-4.211,52.44-.261,4.78,1.1,9.454,2.9,14.352,3.158,8.461.459,16.567-3.668,25.036-3.9,12.845-.345,25.466,8.25,37.86,4.86,4.077-1.116,7.816-3.5,12.023-3.9,4.687-.421,9.193,1.621,13.75,2.813,16.159,4.211,32.987-2.611,49.694-3.121,10.895-.333,21.684,2.042,32.57,2.59a194.5,194.5,0,0,0,23.23-.695c2.948-.206,6.035-.459,8.5-2.076s3.984-5.092,2.459-7.618Z" transform="translate(-203.587 -487.076)" fill="#3f3d56"/>
      <g id="Group_18" data-name="Group 18" transform="translate(13.631 87.667)" opacity="0.1">
        <path id="Path_80" data-name="Path 80" d="M181.433,630.846a10.3,10.3,0,0,1-1.36,5.214,10.672,10.672,0,0,1,0,10.427,9.583,9.583,0,0,1,1.028,2.527,191.228,191.228,0,0,1-12.672-18.951h0a10.107,10.107,0,0,1,1.331-4.447,10.3,10.3,0,0,1-1.36-5.214,10.721,10.721,0,0,1,.615-3.626,9.008,9.008,0,0,1,.745-1.588,5.666,5.666,0,0,1,10.314,0,9.38,9.38,0,0,1,.729,1.537,10.793,10.793,0,0,1,.632,3.676,10.3,10.3,0,0,1-1.36,5.214A10.3,10.3,0,0,1,181.433,630.846Z" transform="translate(-143.538 -477.684)" fill="#3f3d56"/>
        <ellipse id="Ellipse_9" data-name="Ellipse 9" cx="6.515" cy="8.532" rx="6.515" ry="8.532" transform="translate(24.861 123.78)" fill="#3f3d56"/>
        <ellipse id="Ellipse_10" data-name="Ellipse 10" cx="6.515" cy="8.532" rx="6.515" ry="8.532" transform="translate(24.861 113.353)" fill="#3f3d56"/>
        <path id="Path_81" data-name="Path 81" d="M171.822,363.047a31.071,31.071,0,0,1-6.683,19.3,31.219,31.219,0,0,1-18.53,49.934c-.75.152-1.512.27-2.283.362a31.543,31.543,0,0,1-7.159.038q-1.188-.127-2.346-.35a30.868,30.868,0,0,1-9.686-3.542,311.019,311.019,0,0,1-14.66-35.287,31.076,31.076,0,0,1,5.6-11.139,31.244,31.244,0,0,1-5.054-29.315L134.72,361l-22.227-11.547a31.345,31.345,0,0,1,3.559-5.694,31.219,31.219,0,1,1,51.559-34.933L144.7,325.675l24.847-12.887a31.257,31.257,0,0,1-.6,24.733l-18.53-.139,17.123,2.813a31.334,31.334,0,0,1-2.43,3.571A31.08,31.08,0,0,1,171.822,363.047Z" transform="translate(-109.367 -293.239)" fill="#6bdb20"/>
        <path id="Path_82" data-name="Path 82" d="M171.853,496.986a31.226,31.226,0,0,1-25.187,30.632c-.755.153-1.517.27-2.288.363a31.536,31.536,0,0,1-7.159.038q-1.188-.126-2.346-.349a30.87,30.87,0,0,1-9.686-3.542,311.007,311.007,0,0,1-14.681-35.3,31.075,31.075,0,0,1,5.6-11.139,31.092,31.092,0,0,1-6.683-19.317c0-3.5,59.936,13.99,55.75,19.3A31.071,31.071,0,0,1,171.853,496.986Z" transform="translate(-109.397 -388.56)" opacity="0.1"/>
      </g>
      <g id="Group_19" data-name="Group 19" transform="translate(398.106 121.177)" opacity="0.1">
        <path id="Path_83" data-name="Path 83" d="M1085.822,637.65c-1.221,3.9-2.527,7.77-3.866,11.552a10.8,10.8,0,0,1-.556-3.458C1081.4,641.983,1083.253,638.791,1085.822,637.65Z" transform="translate(-1056.52 -526.117)" fill="#3f3d56"/>
        <path id="Path_84" data-name="Path 84" d="M1064.72,417.147c0,7.391-1.491,19.069-4.211,32.427a356.081,356.081,0,0,1-8.907,34.769c-1.221,3.9-2.527,7.77-3.866,11.552-1.537,4.3-3.159,8.473-4.856,12.47a31.337,31.337,0,0,1-13.86-48.755,31.366,31.366,0,0,1-5.053-29.378l23.7,7.972-22.227-11.573a31.447,31.447,0,0,1,3.559-5.706,31.332,31.332,0,0,1,12.263-48.114,53.717,53.717,0,0,1,20.53,26.923l-4.106,3.057,4.405-2.287a53.47,53.47,0,0,1,2.565,14.028h-1.238l1.263.206C1064.72,415.534,1064.72,416.334,1064.72,417.147Z" transform="translate(-1022.321 -372.81)" fill="#6bdb20"/>
        <path id="Path_85" data-name="Path 85" d="M1060.587,541.674a356.145,356.145,0,0,1-8.907,34.769c-1.221,3.9-2.527,7.77-3.866,11.552-1.537,4.3-3.158,8.473-4.856,12.47A31.337,31.337,0,0,1,1029.1,551.71a31.207,31.207,0,0,1-6.679-19.338C1022.42,530.266,1044.2,535.782,1060.587,541.674Z" transform="translate(-1022.378 -464.91)" opacity="0.1"/>
      </g>
      <path id="Path_86" data-name="Path 86" d="M517.451,283.987v-.2a53.455,53.455,0,0,0-2.565-14.028c-.084-.257-.168-.518-.257-.771a53.46,53.46,0,0,0-90.506-18.273,75.559,75.559,0,0,0-4.258-14.938,239.878,239.878,0,0,1-42.379,1.579,170.985,170.985,0,0,0,26.868,9.758l-.328,1.221a172.544,172.544,0,0,1-30.035-11.244l-2.91-1.411,3.226.211a239.958,239.958,0,0,0,45.061-1.293,75.981,75.981,0,0,0-13.274-21.09c-24.24-2.443-48.291-7.53-70.75-17.616l.518-1.15c21.861,9.825,45.289,14.874,68.94,17.359a75.7,75.7,0,0,0-120.33,12.79,103.974,103.974,0,0,0-25.79-58.5,242.835,242.835,0,0,1-39.911,12.091,241.374,241.374,0,0,1-62.387,4.965,170.983,170.983,0,0,0,26.868,9.758l-.328,1.221A172.543,172.543,0,0,1,152.9,183.189l-2.91-1.411,3.226.211a239.714,239.714,0,0,0,104.593-16.572q-1.874-2.051-3.858-4.009c-41.448.842-86.589.421-127.456-14.457A104.243,104.243,0,0,0,77,235.754c0,19.566,5.378,46.472,14.74,73.467a312.16,312.16,0,0,0,14.7,35.375c2.859,5.812,5.9,11.459,9.084,16.866h0A191.442,191.442,0,0,0,128.2,380.414q1.238,1.63,2.506,3.2a115.6,115.6,0,0,0,15.784,16.369h0q1.756,1.465,3.533,2.792a67.3,67.3,0,0,0,10.107,6.317,46.6,46.6,0,0,0,19.077,5.172c.522.021,1.049.034,1.571.034v.215h283V414.3h.211a14.32,14.32,0,0,0,4.784-.842c10.006-3.55,19.221-17.805,26.881-35.822,1.685-4,3.319-8.174,4.856-12.47,1.356-3.79,2.645-7.652,3.866-11.552a356.153,356.153,0,0,0,8.907-34.769c2.7-13.358,4.211-25.036,4.211-32.427C517.505,285.591,517.505,284.791,517.451,283.987Z" transform="translate(-77 -120.89)" fill="#6bdb20" opacity="0.1"/>
      <path id="Path_87" data-name="Path 87" d="M372.531,733.163l8.06-4.742a19.427,19.427,0,0,0-4.123-4.932l-15.207,4.729,11.918-7A19.372,19.372,0,0,0,344.5,738.208c0,10.7,8.671,11.068,19.372,11.068s19.372-.371,19.372-11.068a19.282,19.282,0,0,0-1.663-7.862Z" transform="translate(-231.847 -451.935)" fill="#6bdb20"/>
      <path id="Path_88" data-name="Path 88" d="M374.564,760.625a15.059,15.059,0,0,0-2.855-2.24,13.3,13.3,0,0,0-4.7-2.3,35.3,35.3,0,0,0-4.632-.135,10.806,10.806,0,0,1-7.079-3.243A22.11,22.11,0,0,0,352,749.3a7.235,7.235,0,0,0-4.931-.906,12.237,12.237,0,0,0-1.457.3,19.31,19.31,0,0,0-1.146,6.574c0,10.7,8.671,11.067,19.372,11.067,5.193,0,9.905-.089,13.384-1.4l-.581-1.087A15.326,15.326,0,0,0,374.564,760.625Z" transform="translate(-231.829 -468.998)" opacity="0.1"/>
      <circle id="Ellipse_11" data-name="Ellipse 11" cx="15.056" cy="15.056" r="15.056" transform="translate(215.447 63.178)" fill="#3f3d56"/>
      <path id="Path_89" data-name="Path 89" d="M570.236,535.654c1.554,10.9-.341,22.021-3.293,32.629a24.234,24.234,0,0,1-2.177,5.74,61.244,61.244,0,0,1-3.681,4.965c-2.527,3.479-4.009,7.58-5.395,11.64a328.323,328.323,0,0,0-9.61,34.247,2.344,2.344,0,0,0,0,1.461c.366.842,1.478.952,2.392.948l11.817-.063c.421-.809-.358-1.685-.842-2.459-1.685-2.619-.067-6.022,1.419-8.764a94.223,94.223,0,0,0,8.33-21.057,57.088,57.088,0,0,1,2.779-9.151c1.588-3.529,4.077-6.565,6.1-9.867a82.638,82.638,0,0,0,5.765-12.183c2.375-5.8,4.771-11.678,5.706-17.877.88-5.82.446-11.75-.126-17.608a1.112,1.112,0,0,0-1.289-1.263l-15.856-.817c-3.268-.168-4.043-.884-3.546,2.325C569.073,530.895,569.891,533.228,570.236,535.654Z" transform="translate(-348.467 -340.303)" fill="#3f3d56"/>
      <path id="Path_90" data-name="Path 90" d="M570.236,535.654c1.554,10.9-.341,22.021-3.293,32.629a24.234,24.234,0,0,1-2.177,5.74,61.244,61.244,0,0,1-3.681,4.965c-2.527,3.479-4.009,7.58-5.395,11.64a328.323,328.323,0,0,0-9.61,34.247,2.344,2.344,0,0,0,0,1.461c.366.842,1.478.952,2.392.948l11.817-.063c.421-.809-.358-1.685-.842-2.459-1.685-2.619-.067-6.022,1.419-8.764a94.223,94.223,0,0,0,8.33-21.057,57.088,57.088,0,0,1,2.779-9.151c1.588-3.529,4.077-6.565,6.1-9.867a82.638,82.638,0,0,0,5.765-12.183c2.375-5.8,4.771-11.678,5.706-17.877.88-5.82.446-11.75-.126-17.608a1.112,1.112,0,0,0-1.289-1.263l-15.856-.817c-3.268-.168-4.043-.884-3.546,2.325C569.073,530.895,569.891,533.228,570.236,535.654Z" transform="translate(-348.467 -340.303)" opacity="0.1"/>
      <path id="Path_91" data-name="Path 91" d="M603.122,484.376c-3.222,4.632-6.6,9.964-5.529,15.51.813,4.211,4.022,7.475,7.05,10.528,12.1,12.154,24,25.655,28.123,42.311,1.061,4.3,1.575,8.722,2.489,13.055,1.659,7.875,4.632,15.405,7.58,22.889l7.9,19.941a11.943,11.943,0,0,0,11.413-7.58,5,5,0,0,1-2.994-1.925c-3.369-4.662-4.06-10.659-4.923-16.344-.956-6.283-2.232-12.516-3.512-18.745l-5.66-27.559c-.653-3.18-1.305-6.363-2.156-9.5-3.293-12.137-9.534-23.583-10.5-36.133-.143-1.845-.232-3.87-1.482-5.239-1.314-1.445-3.47-1.685-5.42-1.8C617.613,483.285,610.808,482.514,603.122,484.376Z" transform="translate(-378.237 -315.531)" fill="#3f3d56"/>
      <path id="Path_92" data-name="Path 92" d="M547.26,757.1a12.585,12.585,0,0,0-2.619-.337,5.442,5.442,0,0,0-4.279,2.337,10.637,10.637,0,0,0-1.15,2.527l-1.141,3.276a3.645,3.645,0,0,0-.164,2.948,3.123,3.123,0,0,0,1.533,1.183c2.763,1.23,5.9,1.3,8.886,1.592,2.923.286,5.82.8,8.7,1.339.994.19,1.984.379,2.99.48a35.614,35.614,0,0,0,6.763-.2l2.32-.223a8.35,8.35,0,0,0,2.283-.421,2.876,2.876,0,0,0,1.685-1.512c.573-1.419-.657-3.1-2.16-3.394-.611-.118-1.263-.063-1.861-.143a8.782,8.782,0,0,1-2.038-.61,40.654,40.654,0,0,1-8.578-4.182c-.724-.51-1.482-1.221-1.4-2.106a4.292,4.292,0,0,1,.375-1.091,3.984,3.984,0,0,0,.034-2.817c-.143-.387-.421-.8-.813-.842-1.112-.135-.977,1.487-1.141,2.106-.223.842-.627.918-1.419.842C551.791,757.641,549.517,757.527,547.26,757.1Z" transform="translate(-343.655 -472.807)" fill="#f2f2f2"/>
      <path id="Path_93" data-name="Path 93" d="M718.278,766.371a7.432,7.432,0,0,0,1.609,4.527,3.52,3.52,0,0,0,1.145.922,4.6,4.6,0,0,0,2.106.333,16.864,16.864,0,0,0,5.849-1.183,16.724,16.724,0,0,1,2.022-.762,22.7,22.7,0,0,1,2.628-.379c3.483-.5,6.54-2.556,9.905-3.6a20.815,20.815,0,0,0,2.948-.969,13.516,13.516,0,0,0,3.466-2.708,6.22,6.22,0,0,0,2.274-5.736,1.091,1.091,0,0,0-.1-.594.884.884,0,0,0-.379-.3,5.5,5.5,0,0,0-3.369-.055,59.878,59.878,0,0,1-12.44.459,1.807,1.807,0,0,1-1.912-1.091l-1.579-2.527c-.451-.724-1.167-1.554-1.984-1.306a1.617,1.617,0,0,0-.893,1.685,9,9,0,0,1,.105,2.038,2.783,2.783,0,0,1-1.348,1.752,8.609,8.609,0,0,1-2.106.808c-2.325.657-5.028,1.4-6.827,3.112C718.076,762.016,718.2,764.733,718.278,766.371Z" transform="translate(-448.189 -470.765)" fill="#f2f2f2"/>
      <path id="Path_94" data-name="Path 94" d="M694.08,365.091a9.758,9.758,0,0,0,2.3-2.5,10.193,10.193,0,0,0,.981-3.457l.661-4.178c.366-2.3.8-4.742,2.333-6.5s4.6-2.384,6.161-.649a5.4,5.4,0,0,1,1.12,2.8,20.357,20.357,0,0,1-4.978,16.845c-1.891,2.072-4.211,3.719-6.212,5.677-1.743,1.685-3.255,3.618-4.864,5.449a67.138,67.138,0,0,1-13.253,11.581c.059-3.133.459-6.494,0-9.606-.341-2.249-1.263-3.462.914-4.931C684.3,372.182,689.4,369.075,694.08,365.091Z" transform="translate(-424.808 -236.565)" fill="#fbbebe"/>
      <path id="Path_95" data-name="Path 95" d="M611.508,308.027a7.7,7.7,0,0,1-2.948,5.824q7.871,2.754,15.527,6.073a5.379,5.379,0,0,1-1.331-3.765,19,19,0,0,1,2.906-10.149,2.463,2.463,0,0,0,.476-1.339c-.059-.994-1.238-1.453-2.207-1.684a54.267,54.267,0,0,0-10.073-1.461c-1.453-.046-3.175-.505-2.847,1.343A20.334,20.334,0,0,1,611.508,308.027Z" transform="translate(-384.703 -210.32)" fill="#fbbebe"/>
      <circle id="Ellipse_12" data-name="Ellipse 12" cx="12.31" cy="12.31" r="12.31" transform="translate(224.645 74.288)" fill="#fbbebe"/>
      <path id="Path_96" data-name="Path 96" d="M627.284,342.707a14.883,14.883,0,0,0-1.562-2.619,54.486,54.486,0,0,0-7.387-9.059,45.981,45.981,0,0,0-7.012-5.15,15.914,15.914,0,0,0-4.388-2.106,17.169,17.169,0,0,0-2.817-.383l-3.2-.261a2.613,2.613,0,0,0-.842.025A1.815,1.815,0,0,0,599,325.323a5.337,5.337,0,0,0,1.424,2.24c.143,6.523-2.758,12.958-3.15,19.473-.687,11.392,6.266,21.987,6.822,33.387a3.6,3.6,0,0,1-.16,1.529c-.093.236-.232.451-.337.682a6.667,6.667,0,0,0-.375,2.316,11.766,11.766,0,0,1-3.466,7.42,5.15,5.15,0,0,0,1.954,1.491,35.253,35.253,0,0,0,4.376,1.044c3.723,1.086,7.538,2.181,11.409,1.95a10.066,10.066,0,0,0,.88-3.314c.548-.341,1.179.388,1.263,1.028s-.038,1.386.421,1.849a1.733,1.733,0,0,0,1.6.32,70.7,70.7,0,0,0,6.949-1.63,12.961,12.961,0,0,1,7.045-.025,1.885,1.885,0,0,0-.109-2.064,9.218,9.218,0,0,1-1.108-1.891,4.242,4.242,0,0,1-.135-1.242c0-3.6.741-7.239.038-10.773-.206-1.036-.535-2.047-.745-3.087a26.633,26.633,0,0,1-.3-6.157c.055-2.059-.194-4.287-.236-6.376a20.33,20.33,0,0,0-.169-2.582c-.143-.9-.421-1.773-.5-2.678-.227-2.3.7-4.582.56-6.89C632.721,347.841,628.649,345.937,627.284,342.707Z" transform="translate(-378.142 -222.861)" fill="#ff6f61"/>
      <path id="Path_97" data-name="Path 97" d="M579.791,365.582c-2.982,7.909-4.439,16.3-5.9,24.628l-3.369,19.566a94.676,94.676,0,0,0-1.878,16.7,17.878,17.878,0,0,1-.312,4.7c-.539,2-1.878,3.66-2.893,5.475a18.017,18.017,0,0,0-1.937,12.183c.345,1.748,1.289,3.731,3.062,3.933,1.457.16,2.716-1,3.567-2.194,1.954-2.742,2.923-6.052,3.79-9.311a210.622,210.622,0,0,0,5.841-32.465,31.615,31.615,0,0,1,.585-4.127,29.3,29.3,0,0,1,1.423-4.11q1.933-4.792,3.87-9.585c2.977-7.382,5.972-14.8,10.061-21.629-4.043-1.162-8.25-2.527-12.293-3.676A11.1,11.1,0,0,0,579.791,365.582Z" transform="translate(-358.431 -247.387)" fill="#fbbebe"/>
      <path id="Path_98" data-name="Path 98" d="M605.3,367.149c-2.83-.611-5.757-.421-8.646-.493a1.865,1.865,0,0,1-1.162-.3c-.585-.5-.337-1.44-.042-2.152l1.4-3.369a4.9,4.9,0,0,1,1.12-1.861,4.75,4.75,0,0,1,2.657-.9,24.077,24.077,0,0,1,9.206.358,11.01,11.01,0,0,1,7.109,5.508,3.749,3.749,0,0,1,.076,3.685c-1.095,1.571-3.55,3.327-5.382,2.468C609.439,369.049,607.759,367.671,605.3,367.149Z" transform="translate(-376.932 -242.944)" fill="#ff6f61"/>
      <path id="Path_99" data-name="Path 99" d="M601.769,233.466a12.433,12.433,0,0,0-6.865,1.979,15.056,15.056,0,0,0-14.782-3.462,8.6,8.6,0,1,0-9.939,9.956,15.056,15.056,0,0,0,28.9,8.461,13.476,13.476,0,0,0,2.7.274c5.938,0,10.756-3.853,10.756-8.6S607.7,233.466,601.769,233.466Z" transform="translate(-358.354 -165.988)" fill="#3f3d56"/>
      <path id="Path_100" data-name="Path 100" d="M653.67,271.3a13.091,13.091,0,0,1-2.7-.274A14.983,14.983,0,0,1,649,275.357a13.522,13.522,0,0,0,2.527.244c5.55,0,10.107-3.369,10.693-7.681A11.864,11.864,0,0,1,653.67,271.3Z" transform="translate(-408.112 -190.916)" opacity="0.1"/>
      <path id="Path_101" data-name="Path 101" d="M586.711,260.925a15.077,15.077,0,0,1-14.394-19.49,8.6,8.6,0,0,1-7.113-8.473,8.45,8.45,0,0,1,.139-1.541,8.6,8.6,0,0,0,4.826,14.319,15.055,15.055,0,1,0,28.759,8.92,15.026,15.026,0,0,1-12.217,6.266Z" transform="translate(-358.36 -169.787)" opacity="0.1"/>
      <rect id="Rectangle_11" data-name="Rectangle 11" width="0.282" height="2.333" rx="0.141" transform="matrix(0.814, 0.581, -0.581, 0.814, 283.123, 116.242)" fill="#3a3768"/>
      <rect id="Rectangle_12" data-name="Rectangle 12" width="0.16" height="0.766" rx="0.08" transform="matrix(0.814, 0.581, -0.581, 0.814, 276.53, 109.289)" fill="#3a3768"/>
      <rect id="Rectangle_13" data-name="Rectangle 13" width="0.177" height="1.335" rx="0.088" transform="matrix(0.814, 0.581, -0.581, 0.814, 275.703, 110.435)" fill="#3a3768"/>
      <rect id="Rectangle_14" data-name="Rectangle 14" width="0.168" height="1.348" rx="0.084" transform="matrix(0.814, 0.581, -0.581, 0.814, 274.663, 111.906)" fill="#3a3768"/>
      <rect id="Rectangle_15" data-name="Rectangle 15" width="9.467" height="19.242" rx="2.52" transform="matrix(0.814, 0.581, -0.581, 0.814, 278.468, 108.063)" fill="#3a3768"/>
      <rect id="Rectangle_16" data-name="Rectangle 16" width="9.467" height="19.242" rx="2.52" transform="matrix(0.814, 0.581, -0.581, 0.814, 278.468, 108.063)" opacity="0.1"/>
      <rect id="Rectangle_17" data-name="Rectangle 17" width="9.467" height="19.242" rx="2.52" transform="matrix(0.814, 0.581, -0.581, 0.814, 278.078, 107.278)" fill="#3a3768"/>
      <path id="Path_102" data-name="Path 102" d="M729.7,346.381l-.88-.632-.076.105a.615.615,0,0,1-.842.147l-2.813-2.009a.619.619,0,0,1-.143-.863l.076-.105-.842-.59a.749.749,0,0,0-1.049.173l-9.72,13.624a.754.754,0,0,0,.173,1.049l5.534,3.946a.749.749,0,0,0,1.049-.177l9.72-13.619a.75.75,0,0,0-.185-1.049Z" transform="translate(-445.314 -233.968)" fill="#6bdb20"/>
      <rect id="Rectangle_18" data-name="Rectangle 18" width="1.322" height="0.27" rx="0.135" transform="matrix(0.814, 0.581, -0.581, 0.814, 280.852, 109.968)" fill="#e6e8ec"/>
      <circle id="Ellipse_13" data-name="Ellipse 13" cx="0.152" cy="0.152" r="0.152" transform="translate(281.966 110.91)" fill="#e6e8ec"/>
      <path id="Path_103" data-name="Path 103" d="M708.216,99A28.216,28.216,0,0,0,680,127.216c0,15.582,29.564,67.188,29.564,67.188s26.868-51.585,26.868-67.188A28.216,28.216,0,0,0,708.216,99Zm0,47.032a6.124,6.124,0,1,1,0,.013Z" transform="translate(-426.057 -93.134)" fill="#6bdb20"/>
      <path id="Path_104" data-name="Path 104" d="M708.216,99A28.216,28.216,0,0,0,680,127.216c0,15.582,29.564,67.188,29.564,67.188s26.868-51.585,26.868-67.188A28.216,28.216,0,0,0,708.216,99Zm0,47.032a6.124,6.124,0,1,1,0,.013Z" transform="translate(-426.057 -93.134)" opacity="0.1"/>
      <path id="Path_105" data-name="Path 105" d="M708.216,85.07A28.216,28.216,0,0,0,680,113.286c0,15.582,29.564,73.067,29.564,73.067s26.868-57.476,26.868-73.062a28.217,28.217,0,0,0-28.22-28.22Zm0,47.032A14.782,14.782,0,1,1,723,117.32,14.782,14.782,0,0,1,708.216,132.1Z" transform="translate(-426.057 -85.07)" fill="#6bdb20"/>
    </g>
    <g id="phone-24px" transform="translate(1279 3406)">
      <path id="Path_106" data-name="Path 106" d="M0,0H50.5V50.5H0Z" fill="none"/>
      <path id="Path_107" data-name="Path 107" d="M10.617,19.391A31.875,31.875,0,0,0,24.484,33.258l4.629-4.629a2.092,2.092,0,0,1,2.146-.5,24,24,0,0,0,7.512,1.2,2.11,2.11,0,0,1,2.1,2.1v7.344a2.11,2.11,0,0,1-2.1,2.1A35.768,35.768,0,0,1,3,5.1,2.11,2.11,0,0,1,5.1,3h7.365a2.11,2.11,0,0,1,2.1,2.1,23.9,23.9,0,0,0,1.2,7.512,2.112,2.112,0,0,1-.526,2.146Z" transform="translate(3.313 3.313)" fill="#6cdc21"/>
    </g>
    <g id="email-24px" transform="translate(1282 3554)">
      <path id="Path_108" data-name="Path 108" d="M36.125,4H5.792A3.787,3.787,0,0,0,2.019,7.792L2,30.542a3.8,3.8,0,0,0,3.792,3.792H36.125a3.8,3.8,0,0,0,3.792-3.792V7.792A3.8,3.8,0,0,0,36.125,4Zm0,7.583L20.958,21.063,5.792,11.583V7.792l15.167,9.479L36.125,7.792Z" transform="translate(1.792 3.583)" fill="#6cdc21"/>
      <path id="Path_109" data-name="Path 109" d="M0,0H45.5V45.5H0Z" fill="none"/>
    </g>
  </g>
</svg>
