<svg xmlns="http://www.w3.org/2000/svg" xmlns:xlink="http://www.w3.org/1999/xlink" width="289.271" height="287.069" viewBox="0 0 289.271 287.069">
  <defs>
    <filter id="Path_41" x="84.78" y="81.672" width="123.222" height="158.02" filterUnits="userSpaceOnUse">
      <feOffset dx="6" dy="3" input="SourceAlpha"/>
      <feGaussianBlur stdDeviation="10" result="blur"/>
      <feFlood flood-color="#183008" flood-opacity="0.161"/>
      <feComposite operator="in" in2="blur"/>
      <feComposite in="SourceGraphic"/>
    </filter>
    <filter id="Path_26" x="109.639" y="108.115" width="166.965" height="157.363" filterUnits="userSpaceOnUse">
      <feOffset dx="6" dy="3" input="SourceAlpha"/>
      <feGaussianBlur stdDeviation="10" result="blur-2"/>
      <feFlood flood-color="#183008" flood-opacity="0.161"/>
      <feComposite operator="in" in2="blur-2"/>
      <feComposite in="SourceGraphic"/>
    </filter>
    <filter id="Path_39" x="84.541" y="125.007" width="131.946" height="162.062" filterUnits="userSpaceOnUse">
      <feOffset dx="6" dy="3" input="SourceAlpha"/>
      <feGaussianBlur stdDeviation="10" result="blur-3"/>
      <feFlood flood-color="#183008" flood-opacity="0.161"/>
      <feComposite operator="in" in2="blur-3"/>
      <feComposite in="SourceGraphic"/>
    </filter>
    <filter id="Path_40" x="25.424" y="108.62" width="153.97" height="167.347" filterUnits="userSpaceOnUse">
      <feOffset dx="6" dy="3" input="SourceAlpha"/>
      <feGaussianBlur stdDeviation="10" result="blur-4"/>
      <feFlood flood-color="#183008" flood-opacity="0.161"/>
      <feComposite operator="in" in2="blur-4"/>
      <feComposite in="SourceGraphic"/>
    </filter>
    <filter id="Path_33" x="127.21" y="72.718" width="162.062" height="131.946" filterUnits="userSpaceOnUse">
      <feOffset dx="6" dy="3" input="SourceAlpha"/>
      <feGaussianBlur stdDeviation="10" result="blur-5"/>
      <feFlood flood-color="#183008" flood-opacity="0.161"/>
      <feComposite operator="in" in2="blur-5"/>
      <feComposite in="SourceGraphic"/>
    </filter>
    <filter id="Path_34" x="113.388" y="13.784" width="153.97" height="167.347" filterUnits="userSpaceOnUse">
      <feOffset dx="6" dy="3" input="SourceAlpha"/>
      <feGaussianBlur stdDeviation="10" result="blur-6"/>
      <feFlood flood-color="#183008" flood-opacity="0.161"/>
      <feComposite operator="in" in2="blur-6"/>
      <feComposite in="SourceGraphic"/>
    </filter>
    <filter id="Path_36" x="83.565" y="0" width="120.155" height="156.432" filterUnits="userSpaceOnUse">
      <feOffset dx="6" dy="3" input="SourceAlpha"/>
      <feGaussianBlur stdDeviation="10" result="blur-7"/>
      <feFlood flood-color="#183008" flood-opacity="0.161"/>
      <feComposite operator="in" in2="blur-7"/>
      <feComposite in="SourceGraphic"/>
    </filter>
    <filter id="Path_37" x="16.665" y="12.606" width="163.242" height="164.207" filterUnits="userSpaceOnUse">
      <feOffset dx="6" dy="3" input="SourceAlpha"/>
      <feGaussianBlur stdDeviation="10" result="blur-8"/>
      <feFlood flood-color="#183008" flood-opacity="0.161"/>
      <feComposite operator="in" in2="blur-8"/>
      <feComposite in="SourceGraphic"/>
    </filter>
    <filter id="Path_38" x="0" y="81.002" width="160.837" height="129.121" filterUnits="userSpaceOnUse">
      <feOffset dx="6" dy="3" input="SourceAlpha"/>
      <feGaussianBlur stdDeviation="10" result="blur-9"/>
      <feFlood flood-color="#183008" flood-opacity="0.161"/>
      <feComposite operator="in" in2="blur-9"/>
      <feComposite in="SourceGraphic"/>
    </filter>
  </defs>
  <g id="Group_7" data-name="Group 7" transform="translate(70.793 -205.126)">
    <g transform="matrix(1, 0, 0, 1, -70.79, 205.13)" filter="url(#Path_41)">
      <path id="Path_41-2" data-name="Path 41" d="M2.853,36.051C-11.891,57.528,33.935,47.44,61.961,53.073s40.26-22.368,22.95-44.9S17.6,14.574,2.853,36.051Z" transform="matrix(-0.1, -0.99, 0.99, -0.1, 118.49, 206.69)" fill="#9ff963"/>
    </g>
    <g transform="matrix(1, 0, 0, 1, -70.79, 205.13)" filter="url(#Path_26)">
      <path id="Path_26-2" data-name="Path 26" d="M2.853,36.051C-11.891,57.528,33.935,47.44,61.961,53.073s40.26-22.368,22.95-44.9S17.6,14.574,2.853,36.051Z" transform="matrix(-0.82, -0.57, 0.57, -0.82, 209.74, 232.48)" fill="#61cb1b"/>
    </g>
    <g transform="matrix(1, 0, 0, 1, -70.79, 205.13)" filter="url(#Path_39)">
      <path id="Path_39-2" data-name="Path 39" d="M2.853,36.051C-11.891,57.528,33.935,47.44,61.961,53.073s40.26-22.368,22.95-44.9S17.6,14.574,2.853,36.051Z" transform="matrix(-0.21, -0.98, 0.98, -0.21, 127.86, 254.07)" fill="#61cb1b"/>
    </g>
    <g transform="matrix(1, 0, 0, 1, -70.79, 205.13)" filter="url(#Path_40)">
      <path id="Path_40-2" data-name="Path 40" d="M2.853,36.051C-11.891,57.528,33.935,47.44,61.961,53.073s40.26-22.368,22.95-44.9S17.6,14.574,2.853,36.051Z" transform="translate(49.42 215.26) rotate(-59)" fill="#61cb1b"/>
    </g>
    <g transform="matrix(1, 0, 0, 1, -70.79, 205.13)" filter="url(#Path_33)">
      <path id="Path_33-2" data-name="Path 33" d="M2.853,36.051C-11.891,57.528,33.935,47.44,61.961,53.073s40.26-22.368,22.95-44.9S17.6,14.574,2.853,36.051Z" transform="matrix(-0.98, 0.21, -0.21, -0.98, 253.27, 152.35)" fill="#61cb1b"/>
    </g>
    <g transform="matrix(1, 0, 0, 1, -70.79, 205.13)" filter="url(#Path_34)">
      <path id="Path_34-2" data-name="Path 34" d="M2.853,36.051C-11.891,57.528,33.935,47.44,61.961,53.073s40.26-22.368,22.95-44.9S17.6,14.574,2.853,36.051Z" transform="translate(231.36 68.5) rotate(121)" fill="#61cb1b"/>
    </g>
    <g transform="matrix(1, 0, 0, 1, -70.79, 205.13)" filter="url(#Path_36)">
      <path id="Path_36-2" data-name="Path 36" d="M2.853,36.051C-11.891,57.528,33.935,47.44,61.961,53.073s40.26-22.368,22.95-44.9S17.6,14.574,2.853,36.051Z" transform="matrix(0.07, 1, -1, 0.07, 161.24, 27)" fill="#61cb1b"/>
    </g>
    <g transform="matrix(1, 0, 0, 1, -70.79, 205.13)" filter="url(#Path_37)">
      <path id="Path_37-2" data-name="Path 37" d="M2.853,36.051C-11.891,57.528,33.935,47.44,61.961,53.073s40.26-22.368,22.95-44.9S17.6,14.574,2.853,36.051Z" transform="matrix(0.69, 0.72, -0.72, 0.69, 79.37, 39.61)" fill="#61cb1b"/>
    </g>
    <g transform="matrix(1, 0, 0, 1, -70.79, 205.13)" filter="url(#Path_38)">
      <path id="Path_38-2" data-name="Path 38" d="M2.853,36.051C-11.891,57.528,33.935,47.44,61.961,53.073s40.26-22.368,22.95-44.9S17.6,14.574,2.853,36.051Z" transform="matrix(0.98, 0.17, -0.17, 0.98, 33.34, 108)" fill="#61cb1b"/>
    </g>
  </g>
</svg>
