<svg xmlns="http://www.w3.org/2000/svg" width="37.278" height="37.278" viewBox="0 0 37.278 37.278">
  <path id="icons8-instagram" d="M13.355,3A10.367,10.367,0,0,0,3,13.355V29.923A10.367,10.367,0,0,0,13.355,40.278H29.923A10.367,10.367,0,0,0,40.278,29.923V13.355A10.367,10.367,0,0,0,29.923,3Zm0,4.142H29.923a6.221,6.221,0,0,1,6.213,6.213V29.923a6.221,6.221,0,0,1-6.213,6.213H13.355a6.221,6.221,0,0,1-6.213-6.213V13.355A6.221,6.221,0,0,1,13.355,7.142ZM31.994,9.213a2.071,2.071,0,1,0,2.071,2.071A2.071,2.071,0,0,0,31.994,9.213ZM21.639,11.284A10.355,10.355,0,1,0,31.994,21.639,10.367,10.367,0,0,0,21.639,11.284Zm0,4.142a6.213,6.213,0,1,1-6.213,6.213A6.221,6.221,0,0,1,21.639,15.426Z" transform="translate(-3 -3)" fill="#64c125"/>
</svg>
