<svg xmlns="http://www.w3.org/2000/svg" width="1416.596" height="1159.458" viewBox="0 0 1416.596 1159.458">
  <defs>
    <filter id="Subtraction_5" x="0" y="0" width="1416.596" height="1159.458" filterUnits="userSpaceOnUse">
      <feOffset dx="15" dy="100" input="SourceAlpha"/>
      <feGaussianBlur stdDeviation="49.5" result="blur"/>
      <feFlood flood-color="#65eb0c" flood-opacity="0.659"/>
      <feComposite operator="in" in2="blur"/>
      <feComposite in="SourceGraphic"/>
    </filter>
  </defs>
  <g id="Group_58" data-name="Group 58" transform="translate(-212.336 48.502)">
    <g transform="matrix(1, 0, 0, 1, 212.34, -48.5)" filter="url(#Subtraction_5)">
      <path id="Subtraction_5-2" data-name="Subtraction 5" d="M15593.031,1270.713a877.081,877.081,0,0,1-95.5-5.473c-32.2-3.546-65.49-8.828-98.96-15.7-32.973-6.77-66.339-15.129-99.17-24.844-32.69-9.673-65.033-20.744-96.128-32.9-31.3-12.24-61.526-25.658-89.836-39.881a840.947,840.947,0,0,1-80.292-45.774,591.225,591.225,0,0,1-67.494-50.583c-10.043-8.806-19.441-17.808-27.934-26.756a330.322,330.322,0,0,1-23.514-27.553c-34.18-45.056-53.118-98.231-56.289-158.046a358.123,358.123,0,0,1,.326-42.315,410.9,410.9,0,0,1,5.11-42.6,501.231,501.231,0,0,1,22.62-84.4,618.428,618.428,0,0,1,35.9-80.539A677.86,677.86,0,0,1,14967.153,520a626.32,626.32,0,0,1,50.756-62.809,462.124,462.124,0,0,1,52.328-48.938h798.36a383.923,383.923,0,0,1,24.427,38.365,490.3,490.3,0,0,1,22.874,46.945c7.464,17.543,14.541,36.7,21.032,56.931,6.773,21.119,13.133,44.106,18.9,68.323a775.226,775.226,0,0,1,16.029,92.011,824.772,824.772,0,0,1,.472,180.241,767.984,767.984,0,0,1-13.614,83.491,652.839,652.839,0,0,1-21.552,75.912,499.454,499.454,0,0,1-28.517,65.965,341.89,341.89,0,0,1-34.511,53.648c-12.513,15.715-25.813,28.823-39.532,38.962a233.854,233.854,0,0,1-23.092,14.991,273.68,273.68,0,0,1-25.52,12.778c-8.776,3.849-18.111,7.426-27.747,10.631-9.481,3.154-19.5,6.031-29.777,8.551C15688.647,1265.762,15643.078,1270.712,15593.031,1270.713Z" transform="translate(-14723.94 -359.76)" fill="#6ede23"/>
    </g>
    <path id="Subtraction_7" data-name="Subtraction 7" d="M15578.79,1317.511a880.705,880.705,0,0,1-96.573-5.557c-32.434-3.6-65.89-8.956-99.437-15.928-33.021-6.862-66.365-15.335-99.109-25.183-32.563-9.793-64.724-21-95.587-33.321-31.029-12.382-60.931-25.955-88.873-40.342a804.982,804.982,0,0,1-78.964-46.247,563.824,563.824,0,0,1-65.861-51.036c-9.75-8.881-18.841-17.954-27.02-26.965a315.185,315.185,0,0,1-22.547-27.744,261.185,261.185,0,0,1-38.025-76.945,280.961,280.961,0,0,1-9.112-41.008,314.824,314.824,0,0,1-3.2-42.156,363.469,363.469,0,0,1,2.189-42.9,425.547,425.547,0,0,1,7.064-43.229,532.115,532.115,0,0,1,26.682-85.83,678.9,678.9,0,0,1,39.965-82.276,770.775,770.775,0,0,1,49.106-75.465,741.843,741.843,0,0,1,54.105-65.4,570.986,570.986,0,0,1,54.964-52.071h827.716c6.331,11.4,12.406,23.712,18.057,36.6,5.891,13.44,11.511,27.942,16.7,43.105,5.394,15.747,10.5,32.7,15.174,50.4,4.838,18.317,9.367,38,13.461,58.5a812.831,812.831,0,0,1,13.134,95.719,883.142,883.142,0,0,1,2.18,95.588,903.675,903.675,0,0,1-7.712,92.947,856.2,856.2,0,0,1-16.543,87.794,738.724,738.724,0,0,1-24.312,80.131,570.933,570.933,0,0,1-31.02,69.956,392,392,0,0,1-36.666,57.271c-13.17,16.857-27.049,31.013-41.251,42.075a248.36,248.36,0,0,1-24.77,16.934,287.038,287.038,0,0,1-27.383,14.421c-9.415,4.34-19.431,8.373-29.77,11.986-10.166,3.553-20.91,6.793-31.932,9.63C15681,1311.947,15632.268,1317.51,15578.79,1317.511Z" transform="translate(-14528.338 -437.917)" fill="none" stroke="#65e510" stroke-width="2"/>
    <path id="Subtraction_6" data-name="Subtraction 6" d="M15572.782,1211.1c-48.8,0-100.756-5.036-154.414-14.973a1058.538,1058.538,0,0,1-156.06-41.672c-25.377-8.874-50.516-18.739-74.718-29.321-24.293-10.622-47.984-22.117-70.416-34.164-46-24.706-86.927-51.761-121.64-80.415-54.183-44.723-96.606-95.176-126.1-149.957a420.719,420.719,0,0,1-19.006-40.253,400.626,400.626,0,0,1-14.176-40.91,388.36,388.36,0,0,1-9.435-41.341,382.939,382.939,0,0,1-4.781-41.548c-6.835-114.432,38.193-228.644,126.791-321.6,22.779-23.9,49.464-47.728,79.312-70.829h823.034a651.76,651.76,0,0,1,47.474,94.746,836.371,836.371,0,0,1,34.779,105.825,968.082,968.082,0,0,1,21.88,112.147,994.556,994.556,0,0,1,8.775,113.71,899.469,899.469,0,0,1-4.534,110.515,715.033,715.033,0,0,1-18.048,102.562c-8.415,32.813-19.1,63.044-31.768,89.852a367.854,367.854,0,0,1-21.092,38.672,294.543,294.543,0,0,1-24.6,33.711,237.081,237.081,0,0,1-25.609,25.787,258.991,258.991,0,0,1-29.4,21.9,295.1,295.1,0,0,1-32.843,18.156,345.38,345.38,0,0,1-35.929,14.548c-12.28,4.2-25.287,7.93-38.659,11.076-13.124,3.087-26.931,5.691-41.036,7.741A613.425,613.425,0,0,1,15572.782,1211.1Z" transform="translate(-14489 -304.122)" fill="none" stroke="#65e510" stroke-width="2"/>
  </g>
</svg>
