<svg xmlns="http://www.w3.org/2000/svg" width="1132" height="351" viewBox="0 0 1132 351">
  <defs>
    <style>
      .cls-1 {
        fill: rgba(240,245,88,0.43);
      }

      .cls-2 {
        fill: #81f558;
      }

      .cls-3 {
        fill: rgba(229,245,88,0.71);
      }
    </style>
  </defs>
  <g id="Group_36" data-name="Group 36" transform="translate(-294 -2461)">
    <path id="Subtraction_1" data-name="Subtraction 1" class="cls-1" d="M-1814,414h-.5a176.8,176.8,0,0,1-35.369-3.565,174.616,174.616,0,0,1-32.943-10.226,175.511,175.511,0,0,1-29.811-16.181A176.749,176.749,0,0,1-1938.6,362.6a176.757,176.757,0,0,1-21.43-25.974,175.529,175.529,0,0,1-16.181-29.811,174.628,174.628,0,0,1-10.226-32.943A176.792,176.792,0,0,1-1990,238.5a176.792,176.792,0,0,1,3.565-35.369,174.63,174.63,0,0,1,10.226-32.943,175.532,175.532,0,0,1,16.181-29.811A176.76,176.76,0,0,1-1938.6,114.4a176.754,176.754,0,0,1,25.973-21.43,175.512,175.512,0,0,1,29.811-16.181,174.617,174.617,0,0,1,32.943-10.226A176.8,176.8,0,0,1-1814.5,63h.5V414Z" transform="translate(2284 2398)"/>
    <path id="Subtraction_2" data-name="Subtraction 2" class="cls-2" d="M-1814,414h-.5a176.8,176.8,0,0,1-35.369-3.565,174.616,174.616,0,0,1-32.943-10.226,175.511,175.511,0,0,1-29.811-16.181A176.749,176.749,0,0,1-1938.6,362.6a176.757,176.757,0,0,1-21.43-25.974,175.529,175.529,0,0,1-16.181-29.811,174.628,174.628,0,0,1-10.226-32.943A176.792,176.792,0,0,1-1990,238.5a176.792,176.792,0,0,1,3.565-35.369,174.63,174.63,0,0,1,10.226-32.943,175.532,175.532,0,0,1,16.181-29.811A176.76,176.76,0,0,1-1938.6,114.4a176.754,176.754,0,0,1,25.973-21.43,175.512,175.512,0,0,1,29.811-16.181,174.617,174.617,0,0,1,32.943-10.226A176.8,176.8,0,0,1-1814.5,63h.5V414Z" transform="translate(2762 2398)"/>
    <path id="Subtraction_3" data-name="Subtraction 3" class="cls-3" d="M-1814,414h-.5a176.8,176.8,0,0,1-35.369-3.565,174.616,174.616,0,0,1-32.943-10.226,175.511,175.511,0,0,1-29.811-16.181A176.749,176.749,0,0,1-1938.6,362.6a176.757,176.757,0,0,1-21.43-25.974,175.529,175.529,0,0,1-16.181-29.811,174.628,174.628,0,0,1-10.226-32.943A176.792,176.792,0,0,1-1990,238.5a176.792,176.792,0,0,1,3.565-35.369,174.63,174.63,0,0,1,10.226-32.943,175.532,175.532,0,0,1,16.181-29.811A176.76,176.76,0,0,1-1938.6,114.4a176.754,176.754,0,0,1,25.973-21.43,175.512,175.512,0,0,1,29.811-16.181,174.617,174.617,0,0,1,32.943-10.226A176.8,176.8,0,0,1-1814.5,63h.5V414Z" transform="translate(3240 2398)"/>
  </g>
</svg>
