<svg xmlns="http://www.w3.org/2000/svg" width="37.383" height="37.383" viewBox="0 0 37.383 37.383">
  <defs>
    <style>
      .cls-1 {
        fill: #64c125;
      }
    </style>
  </defs>
  <path id="icons8-facebook" class="cls-1" d="M20.691,2A18.691,18.691,0,1,0,39.383,20.691,18.72,18.72,0,0,0,20.691,2Zm0,3.738A14.945,14.945,0,0,1,22.97,35.454V25.149h4.352L28,20.728H22.97V18.311c0-1.837.6-3.468,2.318-3.468h2.76V10.984a23.537,23.537,0,0,0-3.45-.208c-4.049,0-6.421,2.138-6.421,7.009v2.942H14.014v4.421h4.162V35.418a14.946,14.946,0,0,1,2.515-29.68Z" transform="translate(-2 -2)"/>
</svg>
