<svg xmlns="http://www.w3.org/2000/svg" xmlns:xlink="http://www.w3.org/1999/xlink" width="1385.49" height="1058.083" viewBox="0 0 1385.49 1058.083">
  <defs>
    <style>
      .cls-1 {
        fill: #fff;
      }

      .cls-2 {
        fill: #5b5b5b;
        font-size: 27px;
        font-family: SegoeUI-Semilight, Segoe UI;
        font-weight: 300;
        letter-spacing: 0.076em;
      }

      .cls-3 {
        filter: url(#Path_148);
      }

      .cls-4 {
        filter: url(#Path_147);
      }

      .cls-5 {
        filter: url(#Path_66);
      }

      .cls-6 {
        filter: url(#Path_146);
      }

      .cls-7 {
        filter: url(#Path_145);
      }

      .cls-8 {
        filter: url(#Path_144);
      }
    </style>
    <filter id="Path_144" x="326.886" y="503.128" width="601.724" height="552.168" filterUnits="userSpaceOnUse">
      <feOffset dx="18" dy="62" input="SourceAlpha"/>
      <feGaussianBlur stdDeviation="42" result="blur"/>
      <feFlood flood-color="#959595" flood-opacity="0.302"/>
      <feComposite operator="in" in2="blur"/>
      <feComposite in="SourceGraphic"/>
    </filter>
    <filter id="Path_145" x="382.366" y="565.693" width="446.108" height="418.603" filterUnits="userSpaceOnUse">
      <feOffset dx="18" dy="62" input="SourceAlpha"/>
      <feGaussianBlur stdDeviation="42" result="blur-2"/>
      <feFlood flood-color="#959595" flood-opacity="0.302"/>
      <feComposite operator="in" in2="blur-2"/>
      <feComposite in="SourceGraphic"/>
    </filter>
    <filter id="Path_146" x="0" y="0" width="1385.49" height="1058.083" filterUnits="userSpaceOnUse">
      <feOffset dx="18" dy="62" input="SourceAlpha"/>
      <feGaussianBlur stdDeviation="42" result="blur-3"/>
      <feFlood flood-color="#959595" flood-opacity="0.302"/>
      <feComposite operator="in" in2="blur-3"/>
      <feComposite in="SourceGraphic"/>
    </filter>
    <filter id="Path_66" x="85.434" y="68.435" width="1240.026" height="907.301" filterUnits="userSpaceOnUse">
      <feOffset dx="18" dy="62" input="SourceAlpha"/>
      <feGaussianBlur stdDeviation="42" result="blur-4"/>
      <feFlood flood-color="#959595" flood-opacity="0.302"/>
      <feComposite operator="in" in2="blur-4"/>
      <feComposite in="SourceGraphic"/>
    </filter>
    <filter id="Path_147" x="143.719" y="91.015" width="610.481" height="470.368" filterUnits="userSpaceOnUse">
      <feOffset dx="18" dy="62" input="SourceAlpha"/>
      <feGaussianBlur stdDeviation="42" result="blur-5"/>
      <feFlood flood-color="#959595" flood-opacity="0.149"/>
      <feComposite operator="in" in2="blur-5"/>
      <feComposite in="SourceGraphic"/>
    </filter>
    <filter id="Path_148" x="169.366" y="131.894" width="438.479" height="364.638" filterUnits="userSpaceOnUse">
      <feOffset dx="18" dy="62" input="SourceAlpha"/>
      <feGaussianBlur stdDeviation="42" result="blur-6"/>
      <feFlood flood-color="#959595" flood-opacity="0.22"/>
      <feComposite operator="in" in2="blur-6"/>
      <feComposite in="SourceGraphic"/>
    </filter>
  </defs>
  <g id="Group_51" data-name="Group 51" transform="translate(186.844 -2075.565)">
    <g class="cls-8" transform="matrix(1, 0, 0, 1, -186.84, 2075.57)">
      <path id="Path_144-2" data-name="Path 144" class="cls-1" d="M3100.2,119c-.726,58.73-67.982,170.8-219.323,129.62s-173.654-262.809,11.075-278.1S3100.929,60.273,3100.2,119Z" transform="translate(-2322.71 706.28) rotate(-2)"/>
    </g>
    <g class="cls-7" transform="matrix(1, 0, 0, 1, -186.84, 2075.57)">
      <path id="Path_145-2" data-name="Path 145" class="cls-1" d="M2948.981,52.268c-.4,32.6-37.732,94.8-121.732,71.943S2730.865-21.656,2833.4-30.141,2949.385,19.671,2948.981,52.268Z" transform="translate(-2267.23 763.57) rotate(-2)"/>
    </g>
    <g class="cls-6" transform="matrix(1, 0, 0, 1, -186.84, 2075.57)">
      <path id="Path_146-2" data-name="Path 146" class="cls-1" d="M560.218,300.159c6.607-250.9-323.525-344-454.554-281.2s-42.6,249.681-49.209,500.578-137.156,479.7,22.78,503.011S553.61,551.056,560.218,300.159Z" transform="matrix(-0.26, -0.97, 0.97, -0.26, 253.02, 870.08)"/>
    </g>
    <g class="cls-5" transform="matrix(1, 0, 0, 1, -186.84, 2075.57)">
      <path id="Path_66-2" data-name="Path 66" class="cls-1" d="M435.538,265.788c5.137-222.167-251.523-304.608-353.39-249s-33.12,221.09-38.257,443.257S-62.741,884.813,61.6,905.453,430.4,487.955,435.538,265.788Z" transform="matrix(-0.26, -0.97, 0.97, -0.26, 306.18, 787.74)"/>
    </g>
    <text id="Lorem_ipsum_dolor_sit_amet_consectetur_adipiscing_elit_sed_do_eiusmod_tempor_incididunt_ut_labore_et_dolore_magna_aliqua._Lorem_ipsum_dolor_sit_amet." data-name="Lorem ipsum dolor sit amet, consectetur adipiscing elit, sed do eiusmod tempor incididunt ut labore et dolore magna aliqua. Lorem ipsum dolor sit amet." class="cls-2" transform="translate(129 2505)"><tspan x="12.974" y="29">Lorem ipsum dolor sit amet, consectetur adipiscing elit, </tspan><tspan x="24.283" y="71">sed do eiusmod tempor incididunt ut labore et dolore </tspan><tspan x="99.833" y="113">magna aliqua. Lorem ipsum dolor sit amet.</tspan></text>
    <g class="cls-4" transform="matrix(1, 0, 0, 1, -186.84, 2075.57)">
      <path id="Path_147-2" data-name="Path 147" class="cls-1" d="M3154.152,166.118c-.542,54.858-190.561,91.144-303.7,52.677s-3.127-251.7,99.528-172.927S3154.7,111.259,3154.152,166.118Z" transform="translate(-2550.23 236.57) rotate(-2)"/>
    </g>
    <g class="cls-3" transform="matrix(1, 0, 0, 1, -186.84, 2075.57)">
      <path id="Path_148-2" data-name="Path 148" class="cls-1" d="M2943.225,24.3c-.39,21.645-36.581,62.949-118.018,47.772s-93.443-96.859,5.96-102.493S2943.616,2.655,2943.225,24.3Z" transform="translate(-2480.23 329.57) rotate(-2)"/>
    </g>
  </g>
</svg>
