<svg xmlns="http://www.w3.org/2000/svg" width="97.681" height="37.383" viewBox="0 0 97.681 37.383">
  <defs>
    <style>
      .cls-1 {
        fill: #64c125;
      }
    </style>
  </defs>
  <g id="Group_53" data-name="Group 53" transform="translate(-1749 -44)">
    <path id="icons8-facebook" class="cls-1" d="M20.691,2A18.691,18.691,0,1,0,39.383,20.691,18.72,18.72,0,0,0,20.691,2Zm0,3.738A14.945,14.945,0,0,1,22.97,35.454V25.149h4.352L28,20.728H22.97V18.311c0-1.837.6-3.468,2.318-3.468h2.76V10.984a23.537,23.537,0,0,0-3.45-.208c-4.049,0-6.421,2.138-6.421,7.009v2.942H14.014v4.421h4.162V35.418a14.946,14.946,0,0,1,2.515-29.68Z" transform="translate(1747 42)"/>
    <path id="icons8-instagram" class="cls-1" d="M13.355,3A10.367,10.367,0,0,0,3,13.355V29.923A10.367,10.367,0,0,0,13.355,40.278H29.923A10.367,10.367,0,0,0,40.278,29.923V13.355A10.367,10.367,0,0,0,29.923,3Zm0,4.142H29.923a6.221,6.221,0,0,1,6.213,6.213V29.923a6.221,6.221,0,0,1-6.213,6.213H13.355a6.221,6.221,0,0,1-6.213-6.213V13.355A6.221,6.221,0,0,1,13.355,7.142ZM31.994,9.213a2.071,2.071,0,1,0,2.071,2.071A2.071,2.071,0,0,0,31.994,9.213ZM21.639,11.284A10.355,10.355,0,1,0,31.994,21.639,10.367,10.367,0,0,0,21.639,11.284Zm0,4.142a6.213,6.213,0,1,1-6.213,6.213A6.221,6.221,0,0,1,21.639,15.426Z" transform="translate(1806.403 41)"/>
  </g>
</svg>
