<svg xmlns="http://www.w3.org/2000/svg" xmlns:xlink="http://www.w3.org/1999/xlink" width="1461.081" height="1292.109" viewBox="0 0 1461.081 1292.109">
  <defs>
    <style>
      .cls-1 {
        fill: #fff;
      }

      .cls-2 {
        fill: #5b5b5b;
        font-size: 27px;
        font-family: SegoeUI-Semilight, Segoe UI;
        font-weight: 300;
        letter-spacing: 0.076em;
      }

      .cls-3 {
        filter: url(#Path_140);
      }

      .cls-4 {
        filter: url(#Path_139);
      }

      .cls-5 {
        filter: url(#Path_142);
      }

      .cls-6 {
        filter: url(#Path_46);
      }

      .cls-7 {
        filter: url(#Path_137);
      }

      .cls-8 {
        filter: url(#Path_141);
      }

      .cls-9 {
        filter: url(#Path_138);
      }

      .cls-10 {
        filter: url(#Path_143);
      }
    </style>
    <filter id="Path_143" x="443.695" y="739.941" width="601.724" height="552.168" filterUnits="userSpaceOnUse">
      <feOffset dx="18" dy="62" input="SourceAlpha"/>
      <feGaussianBlur stdDeviation="42" result="blur"/>
      <feFlood flood-color="#959595" flood-opacity="0.302"/>
      <feComposite operator="in" in2="blur"/>
      <feComposite in="SourceGraphic"/>
    </filter>
    <filter id="Path_138" x="374.695" y="774.421" width="469.301" height="429.651" filterUnits="userSpaceOnUse">
      <feOffset dx="18" dy="62" input="SourceAlpha"/>
      <feGaussianBlur stdDeviation="42" result="blur-2"/>
      <feFlood flood-color="#959595" flood-opacity="0.302"/>
      <feComposite operator="in" in2="blur-2"/>
      <feComposite in="SourceGraphic"/>
    </filter>
    <filter id="Path_141" x="959.007" y="237.548" width="426.447" height="415.747" filterUnits="userSpaceOnUse">
      <feOffset dx="18" dy="62" input="SourceAlpha"/>
      <feGaussianBlur stdDeviation="42" result="blur-3"/>
      <feFlood flood-color="#959595" flood-opacity="0.302"/>
      <feComposite operator="in" in2="blur-3"/>
      <feComposite in="SourceGraphic"/>
    </filter>
    <filter id="Path_137" x="0" y="168.284" width="1461.081" height="1010.539" filterUnits="userSpaceOnUse">
      <feOffset dx="18" dy="62" input="SourceAlpha"/>
      <feGaussianBlur stdDeviation="42" result="blur-4"/>
      <feFlood flood-color="#959595" flood-opacity="0.302"/>
      <feComposite operator="in" in2="blur-4"/>
      <feComposite in="SourceGraphic"/>
    </filter>
    <filter id="Path_46" x="67.031" y="237.195" width="1326.777" height="902.937" filterUnits="userSpaceOnUse">
      <feOffset dx="18" dy="62" input="SourceAlpha"/>
      <feGaussianBlur stdDeviation="42" result="blur-5"/>
      <feFlood flood-color="#959595" flood-opacity="0.302"/>
      <feComposite operator="in" in2="blur-5"/>
      <feComposite in="SourceGraphic"/>
    </filter>
    <filter id="Path_142" x="163.934" y="0" width="755.203" height="675.963" filterUnits="userSpaceOnUse">
      <feOffset dx="18" dy="62" input="SourceAlpha"/>
      <feGaussianBlur stdDeviation="42" result="blur-6"/>
      <feFlood flood-color="#959595" flood-opacity="0.11"/>
      <feComposite operator="in" in2="blur-6"/>
      <feComposite in="SourceGraphic"/>
    </filter>
    <filter id="Path_139" x="245.934" y="90.549" width="537.83" height="509.175" filterUnits="userSpaceOnUse">
      <feOffset dx="18" dy="62" input="SourceAlpha"/>
      <feGaussianBlur stdDeviation="42" result="blur-7"/>
      <feFlood flood-color="#959595" flood-opacity="0.141"/>
      <feComposite operator="in" in2="blur-7"/>
      <feComposite in="SourceGraphic"/>
    </filter>
    <filter id="Path_140" x="934.763" y="219.548" width="363.241" height="354.945" filterUnits="userSpaceOnUse">
      <feOffset dx="18" dy="62" input="SourceAlpha"/>
      <feGaussianBlur stdDeviation="42" result="blur-8"/>
      <feFlood flood-color="#959595" flood-opacity="0.302"/>
      <feComposite operator="in" in2="blur-8"/>
      <feComposite in="SourceGraphic"/>
    </filter>
  </defs>
  <g id="Group_48" data-name="Group 48" transform="translate(-593.346 -1023.752)">
    <g class="cls-10" transform="matrix(1, 0, 0, 1, 593.35, 1023.75)">
      <path id="Path_143-2" data-name="Path 143" class="cls-1" d="M3100.2,119c-.726,58.73-67.982,170.8-219.323,129.62s-173.654-262.809,11.075-278.1S3100.929,60.273,3100.2,119Z" transform="translate(-2205.9 943.09) rotate(-2)"/>
    </g>
    <g class="cls-9" transform="matrix(1, 0, 0, 1, 593.35, 1023.75)">
      <path id="Path_138-2" data-name="Path 138" class="cls-1" d="M2971.829,57.6c-.452,34.685-42.3,100.873-136.477,76.552s-108.059-155.211,6.892-164.239S2972.281,22.915,2971.829,57.6Z" transform="translate(-2274.9 973.09) rotate(-2)"/>
    </g>
    <g class="cls-8" transform="matrix(1, 0, 0, 1, 593.35, 1023.75)">
      <path id="Path_141-2" data-name="Path 141" class="cls-1" d="M2984.115,83.916c5.04,70.2-66.8,101.2-103.279,94.027s-78.617-91.257-42.619-122.732S2979.075,13.715,2984.115,83.916Z" transform="matrix(-0.99, -0.1, 0.1, -0.99, 4031.77, 791.47)"/>
    </g>
    <g class="cls-7" transform="matrix(1, 0, 0, 1, 593.35, 1023.75)">
      <path id="Path_137-2" data-name="Path 137" class="cls-1" d="M3237.087,633c6.415,278.825-314.133,382.291-441.357,312.507s-71.765-293.479-78.18-572.3-101.443-503.8,53.85-529.7S3230.672,354.177,3237.087,633Z" transform="translate(-249.42 3440.02) rotate(-79)"/>
    </g>
    <g class="cls-6" transform="matrix(1, 0, 0, 1, 593.35, 1023.75)">
      <path id="Path_46-2" data-name="Path 46" class="cls-1" d="M3131.055,549.559c5.165,250.156-174.345,322.527-276.77,259.918s-107.5-283.1-112.669-533.254S2630.05-147.45,2755.072-170.69,3125.89,299.4,3131.055,549.559Z" transform="translate(-264.01 3390.68) rotate(-77)"/>
    </g>
    <g class="cls-5" transform="matrix(1, 0, 0, 1, 593.35, 1023.75)">
      <path id="Path_142-2" data-name="Path 142" class="cls-1" d="M3311.565,179.645c15.9,192.746-227.638,238.666-342.731,218.963s-169.1-195.141-74-300.247S3295.663-13.1,3311.565,179.645Z" transform="matrix(-0.99, -0.1, 0.1, -0.99, 3563.43, 810.83)"/>
    </g>
    <text id="Lorem_ipsum_dolor_sit_amet_consectetur_adipiscing_elit_sed_do_eiusmod_tempor_incididunt_ut_labore_et_dolore_magna_aliqua._Lorem_ipsum_dolor_sit_amet_consectetur_adipiscing_elit_sed_do_eiusmod_tempor_incididunt_ut_labore_et_dolore_magna_aliqua." data-name="Lorem ipsum dolor sit amet, consectetur adipiscing elit, sed do eiusmod tempor incididunt ut labore et dolore magna aliqua. Lorem ipsum dolor sit amet, consectetur adipiscing elit, sed do eiusmod tempor incididunt ut labore et dolore magna aliqua." class="cls-2" transform="translate(981 1591)"><tspan x="5.552" y="29">Lorem ipsum dolor sit amet, consectetur adipiscing </tspan><tspan x="5.165" y="71">elit, sed do eiusmod tempor incididunt ut labore et </tspan><tspan x="13.873" y="113">dolore magna aliqua. Lorem ipsum dolor sit amet, </tspan><tspan x="5.071" y="155">consectetur adipiscing elit, sed do eiusmod tempor </tspan></text>
    <g class="cls-4" transform="matrix(1, 0, 0, 1, 593.35, 1023.75)">
      <path id="Path_139-2" data-name="Path 139" class="cls-1" d="M3108.7,119.857c8.973,117.979-128.45,146.087-193.394,134.026S2819.89,134.439,2873.549,70.1,3099.729,1.878,3108.7,119.857Z" transform="matrix(-0.99, -0.1, 0.1, -0.99, 3443.35, 734.59)"/>
    </g>
    <g class="cls-3" transform="matrix(1, 0, 0, 1, 593.35, 1023.75)">
      <path id="Path_140-2" data-name="Path 140" class="cls-1" d="M2926.439,64.248c3.219,44.055-42.666,63.51-65.96,59.007s-50.21-57.268-27.219-77.02S2923.221,20.193,2926.439,64.248Z" transform="matrix(-0.99, -0.1, 0.1, -0.99, 3950.08, 712.67)"/>
    </g>
  </g>
</svg>
